<svg width="1680" height="948" viewBox="0 0 1680 948" fill="none" xmlns="http://www.w3.org/2000/svg">
<g opacity="0.5">
<path d="M1447.26 658C1447.26 658 1430.18 712.505 1452.56 751.205C1474.99 789.905 1528.44 798.128 1528.44 798.128C1528.44 798.128 1545.57 743.623 1523.14 704.923C1500.71 666.223 1447.26 658 1447.26 658Z" fill="#417D30"/>
<path d="M1597.84 758.197C1561.86 776.907 1549.79 829.196 1549.79 829.196C1549.79 829.196 1595.97 851.156 1631.95 832.446C1667.93 813.736 1680 761.447 1680 761.447C1680 761.447 1633.81 739.438 1597.84 758.197Z" fill="#417D30"/>
<path d="M1463.16 884.045C1500.9 877.644 1525.69 833.528 1525.69 833.528C1525.69 833.528 1489.27 799.752 1451.53 806.153C1413.79 812.553 1389 856.67 1389 856.67C1389 856.67 1425.42 890.397 1463.16 884.045Z" fill="#417D30"/>
<path d="M1533.15 945.444C1533.4 947.709 1534.92 948.743 1536.54 948.792C1536.93 948.891 1537.37 948.891 1537.81 948.842C1539.58 948.595 1541.35 948.349 1543.11 948.152C1545.37 947.857 1546.55 945.346 1546.3 943.179C1537.03 856.818 1549.64 770.654 1582.82 691.235C1583.75 689.02 1582.33 686.656 1580.46 685.77C1578.84 684.982 1577.23 684.194 1575.61 683.407C1573.54 682.422 1571.29 683.948 1570.45 685.918C1536.29 767.7 1523.58 856.523 1533.15 945.444Z" fill="#417D30"/>
</g>
<g opacity="0.5">
<path d="M232.742 290.874C232.742 290.874 249.822 236.369 227.441 197.669C205.011 158.969 151.562 150.746 151.562 150.746C151.562 150.746 134.433 205.251 156.863 243.951C179.293 282.652 232.742 290.874 232.742 290.874Z" fill="#417D30"/>
<path d="M82.1613 190.677C118.138 171.967 130.211 119.677 130.211 119.677C130.211 119.677 84.0264 97.7177 48.0501 116.428C12.0739 135.138 7.5348e-05 187.427 7.5348e-05 187.427C7.5348e-05 187.427 46.1851 209.436 82.1613 190.677Z" fill="#417D30"/>
<path d="M216.839 64.8288C179.096 71.2296 154.31 115.346 154.31 115.346C154.31 115.346 190.728 149.122 228.472 142.721C266.215 136.321 291 92.2045 291 92.2045C291 92.2045 254.583 58.4773 216.839 64.8288Z" fill="#417D30"/>
<path d="M146.849 3.42969C146.604 1.1648 145.083 0.130829 143.463 0.0815741C143.07 -0.0169061 142.628 -0.0168756 142.187 0.0323493C140.42 0.278535 138.653 0.52472 136.886 0.72165C134.628 1.01709 133.45 3.52817 133.696 5.69458C142.972 92.0558 130.358 178.22 97.1797 257.639C96.2472 259.854 97.6706 262.218 99.5356 263.104C101.155 263.892 102.775 264.68 104.395 265.467C106.456 266.452 108.714 264.926 109.548 262.956C143.708 181.174 156.42 92.3512 146.849 3.42969Z" fill="#417D30"/>
</g>
<g opacity="0.5" clip-path="url(#clip0_2432_364)">
<path d="M944.183 564.11C944.183 630.032 891.058 683.454 825.534 683.454C760.009 683.454 706.871 630.018 706.871 564.11C706.871 498.202 759.996 444.767 825.534 444.767C891.058 444.767 944.183 498.189 944.183 564.11Z" fill="#417D30"/>
<path d="M854.804 445.514C854.804 460.5 842.728 472.646 827.83 472.646C812.931 472.646 800.855 460.5 800.855 445.514C800.855 430.528 812.931 418.382 827.83 418.382C842.715 418.382 854.804 430.528 854.804 445.514Z" fill="#417D30"/>
<path d="M926.177 468.461C926.177 483.461 914.101 495.607 899.216 495.607C884.304 495.607 872.229 483.461 872.229 468.461C872.229 453.475 884.304 441.329 899.216 441.329C914.101 441.329 926.177 453.475 926.177 468.461Z" fill="#417D30"/>
<path d="M780.446 468.461C780.446 483.461 768.357 495.607 753.472 495.607C738.573 495.607 726.484 483.461 726.484 468.461C726.484 453.475 738.573 441.329 753.472 441.329C768.357 441.329 780.446 453.475 780.446 468.461Z" fill="#417D30"/>
<path d="M960.891 529.302C960.891 544.287 948.815 556.447 933.917 556.447C919.018 556.447 906.942 544.287 906.942 529.302C906.942 514.316 919.018 502.169 933.917 502.169C948.815 502.156 960.891 514.302 960.891 529.302Z" fill="#417D30"/>
<path d="M739.789 529.302C739.789 544.287 727.7 556.447 712.801 556.447C697.916 556.447 685.827 544.287 685.827 529.302C685.827 514.316 697.902 502.169 712.801 502.169C727.713 502.156 739.789 514.302 739.789 529.302Z" fill="#417D30"/>
<path d="M797.884 682.883C797.884 667.897 809.959 655.75 824.858 655.75C839.757 655.75 851.832 667.897 851.832 682.883C851.832 697.868 839.757 710.028 824.858 710.028C809.946 710.015 797.884 697.855 797.884 682.883Z" fill="#417D30"/>
<path d="M872.229 657.951C872.229 642.966 884.304 630.806 899.203 630.806C914.101 630.806 926.164 642.952 926.164 657.951C926.164 672.937 914.088 685.084 899.203 685.084C884.304 685.084 872.229 672.937 872.229 657.951Z" fill="#417D30"/>
<path d="M728.942 659.501C728.942 644.515 741.018 632.355 755.917 632.355C770.815 632.355 782.877 644.501 782.877 659.501C782.877 674.487 770.802 686.633 755.917 686.633C741.018 686.633 728.942 674.487 728.942 659.501Z" fill="#417D30"/>
<path d="M685.84 597.112C685.84 582.126 697.916 569.979 712.815 569.979C727.713 569.979 739.802 582.126 739.802 597.112C739.802 612.098 727.713 624.244 712.815 624.244C697.916 624.244 685.84 612.098 685.84 597.112Z" fill="#417D30"/>
<path d="M910.9 597.112C910.9 582.126 922.976 569.979 937.875 569.979C952.773 569.979 964.849 582.126 964.849 597.112C964.849 612.098 952.773 624.244 937.875 624.244C922.976 624.244 910.9 612.098 910.9 597.112Z" fill="#417D30"/>
<path d="M859.95 702.04C859.95 694.418 866.083 688.236 873.66 688.236C881.224 688.236 887.384 694.418 887.384 702.04C887.384 709.662 881.224 715.844 873.66 715.844C866.083 715.83 859.95 709.662 859.95 702.04Z" fill="#417D30"/>
<path d="M973.804 576.229C981.376 576.229 987.514 570.049 987.514 562.425C987.514 554.802 981.376 548.622 973.804 548.622C966.232 548.622 960.094 554.802 960.094 562.425C960.094 570.049 966.232 576.229 973.804 576.229Z" fill="#417D30"/>
<path d="M975.033 510.145C975.033 506.164 978.234 502.93 982.206 502.93C986.163 502.93 989.378 506.164 989.378 510.145C989.378 514.139 986.163 517.359 982.206 517.359C978.234 517.359 975.033 514.139 975.033 510.145Z" fill="#417D30"/>
<path d="M921.071 702.176C921.071 698.181 924.273 694.948 928.244 694.948C932.215 694.948 935.416 698.181 935.416 702.176C935.416 706.157 932.215 709.39 928.244 709.39C924.273 709.377 921.071 706.157 921.071 702.176Z" fill="#417D30"/>
<path d="M815.93 732.772C815.93 728.791 819.144 725.558 823.102 725.558C827.06 725.558 830.275 728.791 830.275 732.772C830.275 736.753 827.046 739.986 823.102 739.986C819.144 740 815.93 736.766 815.93 732.772Z" fill="#417D30"/>
<path d="M661 611.73C661 607.736 664.215 604.502 668.172 604.502C672.157 604.502 675.372 607.736 675.372 611.73C675.372 615.711 672.157 618.931 668.172 618.931C664.215 618.931 661 615.711 661 611.73Z" fill="#417D30"/>
<path d="M664.026 508.745C664.026 504.764 667.241 501.531 671.212 501.531C675.183 501.531 678.398 504.764 678.398 508.745C678.398 512.726 675.183 515.973 671.212 515.973C667.241 515.973 664.026 512.74 664.026 508.745Z" fill="#417D30"/>
<path d="M822.859 396.045C822.859 392.051 826.074 388.831 830.031 388.831C834.002 388.831 837.217 392.051 837.217 396.045C837.217 400.026 834.002 403.26 830.031 403.26C826.06 403.26 822.859 400.026 822.859 396.045Z" fill="#417D30"/>
<path d="M768.735 425.786C768.735 418.164 774.867 411.982 782.445 411.982C790.023 411.982 796.155 418.164 796.155 425.786C796.155 433.408 790.023 439.577 782.445 439.577C774.867 439.577 768.735 433.408 768.735 425.786Z" fill="#417D30"/>
<path d="M665.62 563.417C665.62 555.795 671.765 549.613 679.343 549.613C686.921 549.613 693.067 555.795 693.067 563.417C693.067 571.026 686.921 577.207 679.343 577.207C671.765 577.207 665.62 571.026 665.62 563.417Z" fill="#417D30"/>
<path d="M767.749 703.045C767.749 695.423 773.881 689.241 781.459 689.241C789.037 689.241 795.169 695.423 795.169 703.045C795.169 710.667 789.037 716.849 781.459 716.849C773.881 716.835 767.749 710.653 767.749 703.045Z" fill="#417D30"/>
<path d="M873.931 440.5C873.931 440.5 882.022 429.251 879.725 418.286C877.429 407.336 865.61 400.841 865.61 400.841C865.61 400.841 857.519 412.091 859.816 423.042C862.112 434.006 873.931 440.5 873.931 440.5Z" fill="#417D30"/>
<path d="M963.836 476.042C972.724 463.937 968.928 444.916 968.928 444.916C968.928 444.916 950.706 445.527 941.819 457.646C932.931 469.752 936.726 488.773 936.726 488.773C936.726 488.773 954.948 488.161 963.836 476.042Z" fill="#417D30"/>
<path d="M978.329 668.78C987.19 662.992 988.811 649.039 988.811 649.039C988.811 649.039 976.047 644.446 967.186 650.234C958.311 656.022 956.704 669.975 956.704 669.975C956.704 669.975 969.455 674.554 978.329 668.78Z" fill="#417D30"/>
<path d="M953.692 652.286C962.553 646.498 964.173 632.544 964.173 632.544C964.173 632.544 951.409 627.952 942.548 633.74C933.687 639.528 932.066 653.481 932.066 653.481C932.066 653.481 944.817 658.073 953.692 652.286Z" fill="#417D30"/>
<path d="M906.51 370C906.51 370 901.81 385.04 907.969 395.719C914.142 406.398 928.851 408.667 928.851 408.667C928.851 408.667 933.566 393.627 927.393 382.948C921.22 372.269 906.51 370 906.51 370Z" fill="#417D30"/>
<path d="M947.951 397.648C938.05 402.811 934.727 417.24 934.727 417.24C934.727 417.24 947.438 423.299 957.338 418.137C967.239 412.974 970.562 398.545 970.562 398.545C970.562 398.545 957.852 392.472 947.951 397.648Z" fill="#417D30"/>
<path d="M910.887 432.376C921.274 430.609 928.095 418.436 928.095 418.436C928.095 418.436 918.073 409.116 907.685 410.882C897.298 412.648 890.477 424.822 890.477 424.822C890.477 424.822 900.5 434.128 910.887 432.376Z" fill="#417D30"/>
<path d="M930.148 449.318C930.216 449.943 930.634 450.228 931.08 450.242C931.188 450.269 931.31 450.269 931.431 450.255C931.918 450.187 932.404 450.119 932.89 450.065C933.511 449.983 933.836 449.291 933.768 448.693C931.215 424.862 934.687 401.086 943.818 379.171C944.074 378.559 943.683 377.907 943.169 377.663C942.724 377.445 942.278 377.228 941.832 377.011C941.265 376.739 940.643 377.16 940.414 377.704C931.013 400.271 927.514 424.781 930.148 449.318Z" fill="#417D30"/>
<path d="M1018.97 589.87C1018.85 589.299 1018.73 588.742 1018.59 588.185C1018.46 587.574 1017.88 587.112 1017.28 587.234C965.416 598.511 910.563 615.059 877.794 661.579C877.429 662.095 877.645 662.843 878.118 663.21L879.442 664.256C879.901 664.623 880.36 664.527 880.684 664.242C880.792 664.174 880.887 664.079 880.968 663.957C898.73 638.754 923.179 622.586 950.072 611.296C963.106 631.499 980.842 644.868 1003.16 651.077C1003.25 651.104 1003.36 651.118 1003.44 651.118C1003.91 651.226 1004.41 651.036 1004.55 650.384C1004.66 649.881 1004.76 649.379 1004.87 648.876C1004.99 648.305 1004.8 647.544 1004.17 647.381C983.003 641.471 965.997 628.972 953.53 609.883C960.04 607.261 966.699 604.951 973.413 602.818C972.872 605.155 970.279 617.912 976.141 627.07C982.611 637.191 996.956 639.066 996.956 639.066C996.956 639.066 1000.81 624.515 994.336 614.393C988.757 605.671 977.37 603.076 974.304 602.532C988.784 597.981 1003.57 594.394 1018.11 591.242C1018.69 591.093 1019.11 590.495 1018.97 589.87Z" fill="#417D30"/>
<path d="M672.711 422.253C672.711 422.253 670.225 435.718 677.087 444.562C683.949 453.407 697.578 454.277 697.578 454.277C697.578 454.277 700.063 440.813 693.201 431.968C686.34 423.137 672.711 422.253 672.711 422.253Z" fill="#417D30"/>
<path d="M661.554 486.232C661.554 486.232 673.021 498.297 685.637 497.754C698.253 497.21 707.263 484.262 707.263 484.262C707.263 484.262 695.795 472.198 683.179 472.741C670.563 473.271 661.554 486.232 661.554 486.232Z" fill="#417D30"/>
<path d="M725.687 449.875C731.522 441.017 727.47 427.566 727.47 427.566C727.47 427.566 713.949 428.476 708.1 437.335C702.265 446.193 706.317 459.644 706.317 459.644C706.317 459.644 719.851 458.733 725.687 449.875Z" fill="#417D30"/>
<path d="M672.981 520.755C673.319 521.217 673.656 521.693 673.994 522.155C674.359 522.658 675.075 522.861 675.574 522.494C718.663 491.368 762.427 454.195 774.043 398.396C774.178 397.784 773.679 397.187 773.098 397.037L771.463 396.616C770.896 396.466 770.504 396.738 770.329 397.119C770.261 397.227 770.207 397.35 770.18 397.485C763.872 427.715 747.866 452.348 727.672 473.488C707.709 460.187 686.151 455.038 663.229 458.285C663.121 458.298 663.04 458.326 662.945 458.366C662.459 458.448 662.081 458.828 662.216 459.48C662.31 459.983 662.418 460.486 662.526 460.989C662.648 461.559 663.121 462.171 663.769 462.089C685.529 459.019 706.074 463.679 725.066 476.178C709.275 492.197 691.162 506.218 673.224 519.166C672.751 519.519 672.589 520.239 672.981 520.755Z" fill="#417D30"/>
<path d="M740.329 655.139C740.329 655.139 723.566 656.376 716.394 667.095C709.221 677.815 714.354 693.969 714.354 693.969C714.354 693.969 731.117 692.733 738.289 682.013C745.462 671.293 740.329 655.139 740.329 655.139Z" fill="#417D30"/>
<path d="M693.228 678.508C697.064 673.929 701.103 669.473 705.182 665.084C716.907 652.517 729.077 640.33 743.719 631.064C743.165 655.153 746.502 679.663 757.821 701.944C758.077 702.447 758.699 702.963 759.293 702.678C759.739 702.474 760.198 702.257 760.644 702.053C761.13 701.822 761.616 701.251 761.306 700.64C749.581 677.557 746.556 652.055 747.636 627.178C747.677 626.309 746.826 625.561 746.015 625.915C745.637 625.67 745.11 625.67 744.746 625.887C723.958 638.115 707.344 656.212 691.743 674.133C682.76 684.676 674.872 695.79 669.604 708.724C669.388 709.254 669.59 709.987 670.198 710.246C670.671 710.449 671.157 710.653 671.63 710.857C672.197 711.088 672.9 710.939 673.143 710.354C677.735 699.064 684.449 689.187 692.04 679.934C689.933 683.046 685.597 690.668 687.339 698.48C689.608 708.642 701.333 715.273 701.333 715.273C701.333 715.273 709.383 705.409 707.114 695.233C704.953 685.559 694.255 679.119 693.228 678.508Z" fill="#417D30"/>
<path d="M717.907 643.862C717.907 643.862 706.817 628.088 691.851 626.2C676.885 624.311 663.715 637.042 663.715 637.042C663.715 637.042 674.804 652.816 689.771 654.704C704.737 656.579 717.907 643.862 717.907 643.862Z" fill="#417D30"/>
<path d="M748.15 701.02C752.256 694.893 748.217 684.907 748.217 684.907C748.217 684.907 737.533 684.866 733.44 691.007C729.347 697.148 733.373 707.121 733.373 707.121C733.373 707.121 744.057 707.161 748.15 701.02Z" fill="#417D30"/>
<path d="M753.971 563.254C753.971 565.632 753.391 567.819 752.229 569.803C751.067 571.841 749.501 573.417 747.555 574.545C745.57 575.686 743.449 576.256 741.193 576.256C739.667 576.256 738.222 576.012 736.871 575.496C735.493 574.952 734.008 574.083 732.414 572.887V588.797H715.421V550.17H738.978C740.37 550.17 741.707 550.306 742.976 550.551C744.26 550.795 745.448 551.162 746.569 551.679C747.691 552.181 748.704 552.806 749.622 553.581C750.541 554.355 751.324 555.252 751.972 556.284C753.31 558.39 753.971 560.714 753.971 563.254ZM732.414 566.95C732.927 567.086 733.386 567.153 733.832 567.153C734.44 567.153 735.021 567.045 735.547 566.841C736.074 566.624 736.533 566.338 736.912 565.958C737.29 565.577 737.587 565.116 737.79 564.558C738.006 564.015 738.114 563.404 738.114 562.751C738.114 561.434 737.776 560.401 737.087 559.654C736.412 558.92 735.466 558.54 734.251 558.54H732.414V566.95Z" fill="white"/>
<path d="M783.904 565.441C783.904 567.683 783.215 569.49 781.864 570.862C780.514 572.221 778.785 572.914 776.678 572.914C774.273 572.914 772.18 571.99 770.383 570.129C769.573 570.835 768.992 571.786 768.627 572.968C768.249 574.15 768.073 575.563 768.073 577.207V588.823H752.526V558.349H768.073V564.83H768.168C769.127 562.629 770.329 560.944 771.774 559.803C773.22 558.662 774.854 558.104 776.691 558.104C778.758 558.104 780.473 558.797 781.851 560.17C783.215 561.542 783.904 563.295 783.904 565.441Z" fill="white"/>
<path d="M802.476 557.724C805.597 557.724 808.406 558.403 810.919 559.776C813.431 561.134 815.376 563.104 816.754 565.699C818.145 568.322 818.847 571.283 818.847 574.585V575.577H802.936C803.206 576.338 803.584 577.03 804.07 577.642C804.543 578.267 805.124 578.783 805.786 579.218C806.434 579.653 807.15 579.979 807.92 580.21C808.703 580.441 809.541 580.549 810.419 580.549C811.243 580.549 812.067 580.468 812.864 580.318C813.661 580.169 814.43 579.952 815.146 579.68C815.862 579.395 816.524 579.055 817.145 578.634C817.767 578.226 818.321 577.751 818.807 577.234V582.574C817.01 584.924 814.903 586.623 812.472 587.696C810.041 588.769 807.245 589.299 804.111 589.299C802.368 589.313 800.72 589.15 799.167 588.81C797.6 588.457 796.182 587.968 794.872 587.302C793.562 586.636 792.4 585.835 791.36 584.883C790.333 583.932 789.455 582.859 788.739 581.677C788.037 580.481 787.497 579.177 787.132 577.764C786.754 576.351 786.578 574.843 786.605 573.267C786.605 570.278 787.267 567.615 788.591 565.278C789.928 562.901 791.806 561.053 794.196 559.749C796.628 558.39 799.383 557.724 802.476 557.724ZM801.99 570.224H809.311C809.257 568.743 808.892 567.561 808.217 566.691C807.528 565.822 806.623 565.387 805.502 565.387C804.503 565.387 803.652 565.822 802.976 566.678C802.314 567.506 801.977 568.58 801.977 569.898V570.224H801.99Z" fill="white"/>
<path d="M856.128 563.363C857.925 561.515 859.681 560.17 861.382 559.341C863.098 558.512 865.029 558.105 867.204 558.105C870.513 558.105 873.107 559.124 874.971 561.162C876.875 563.213 877.807 566.039 877.807 569.64V588.824H863.111V570.496C863.111 569.49 862.841 568.689 862.314 568.091C861.788 567.507 861.085 567.208 860.234 567.208C859.802 567.208 859.316 567.303 858.789 567.479C858.262 567.67 857.789 567.901 857.398 568.186V588.81H842.702V570.482C842.702 569.531 842.459 568.729 841.972 568.118C841.473 567.507 840.77 567.194 839.838 567.194C839.406 567.194 838.92 567.303 838.393 567.493C837.866 567.697 837.393 567.941 837.002 568.227V588.81H821.455V558.336H837.002V562.154C839.5 559.436 842.621 558.078 846.335 558.078C848.604 558.078 850.522 558.499 852.103 559.355C853.67 560.224 855.007 561.556 856.128 563.363Z" fill="white"/>
<path d="M881.333 558.349C882.292 558.906 883.481 559.341 884.858 559.64C886.25 559.939 887.735 560.102 889.316 560.102C890.775 560.102 892.179 559.952 893.476 559.654C894.786 559.368 895.921 558.934 896.88 558.349V588.824H881.319V558.349H881.333ZM896.785 554.002C896.785 555.211 896.353 556.257 895.475 557.14C894.624 558.023 893.598 558.458 892.409 558.458C891.207 558.458 890.167 558.023 889.289 557.14C888.411 556.271 887.978 555.224 887.978 554.002C887.978 552.806 888.411 551.773 889.289 550.917C890.153 550.048 891.193 549.6 892.409 549.6C893.598 549.6 894.624 550.034 895.475 550.89C896.353 551.706 896.785 552.752 896.785 554.002Z" fill="white"/>
<path d="M916.263 557.724C918.681 557.724 920.909 558.118 922.949 558.893C924.989 559.681 926.731 560.767 928.203 562.18C929.676 563.58 930.81 565.251 931.634 567.194C932.458 569.137 932.863 571.256 932.863 573.552C932.863 575.821 932.458 577.927 931.634 579.843C930.81 581.772 929.676 583.43 928.217 584.829C926.758 586.229 925.016 587.315 922.976 588.103C920.936 588.891 918.681 589.272 916.236 589.272C913.143 589.272 910.333 588.62 907.78 587.329C905.268 586.025 903.282 584.191 901.85 581.813C900.419 579.408 899.716 576.65 899.716 573.539C899.716 570.455 900.419 567.724 901.796 565.305C903.201 562.901 905.16 561.026 907.659 559.708C910.185 558.39 913.048 557.724 916.263 557.724ZM916.263 576.704C917.316 576.704 918.167 576.392 918.789 575.767C919.41 575.142 919.721 574.3 919.721 573.24C919.721 572.18 919.397 571.324 918.775 570.699C918.154 570.074 917.316 569.748 916.249 569.748C915.736 569.748 915.29 569.83 914.872 570.006C914.466 570.169 914.102 570.414 913.818 570.726C913.521 571.039 913.291 571.419 913.129 571.84C912.954 572.262 912.886 572.737 912.886 573.24C912.886 574.272 913.197 575.101 913.832 575.74C914.439 576.378 915.263 576.704 916.263 576.704Z" fill="white"/>
<path d="M815.228 541.434C814.633 542.086 814.147 542.589 813.796 542.956C813.418 543.323 813.093 543.662 812.796 543.988C812.499 544.314 812.188 544.613 811.878 544.912C811.554 545.211 811.148 545.605 810.649 546.108C810.189 546.611 809.514 547.303 808.636 548.173C807.744 549.043 806.799 549.898 805.799 550.754C804.8 551.61 803.814 552.344 802.828 552.996C801.855 553.635 801.031 553.961 800.41 553.961C799.356 553.961 798.505 553.39 797.844 552.276C797.182 551.148 796.844 549.79 796.844 548.187C796.844 546.352 797.114 544.491 797.641 542.616C798.168 540.741 798.803 538.853 799.545 536.978C800.302 535.103 801.126 533.228 802.004 531.407C802.895 529.573 803.706 527.834 804.422 526.177C804.84 525.212 805.178 524.383 805.421 523.704C805.664 523.011 805.799 522.44 805.799 521.978C805.799 520.932 805.705 520.253 805.489 519.981C805.286 519.709 804.962 519.573 804.489 519.573C803.584 519.573 802.531 519.968 801.355 520.769C800.167 521.571 798.884 522.658 797.479 524.03C796.088 525.402 794.656 526.992 793.21 528.785C791.752 530.579 790.293 532.426 788.875 534.356C787.443 536.285 786.038 538.228 784.674 540.198C783.31 542.181 782.08 544.016 780.973 545.7C780.622 546.257 780.149 546.529 779.609 546.529C779.244 546.529 778.906 546.38 778.582 546.081C778.258 545.782 778.096 545.401 778.096 544.953C778.096 544.681 778.163 544.41 778.285 544.138C778.744 543.309 779.365 542.195 780.135 540.796C780.905 539.396 781.729 537.861 782.594 536.19C783.458 534.519 784.336 532.78 785.228 531C786.119 529.22 786.916 527.494 787.618 525.85C788.334 524.193 788.902 522.671 789.361 521.272C789.82 519.872 790.05 518.772 790.05 517.943C790.05 516.978 789.901 516.299 789.631 515.905C789.361 515.511 789.064 515.321 788.74 515.321C787.699 515.321 786.457 515.905 785.052 517.046C783.647 518.188 782.148 519.601 780.608 521.272C779.055 522.943 777.555 524.723 776.083 526.611C774.624 528.5 773.341 530.171 772.261 531.638C770.802 533.568 769.491 535.429 768.33 537.222C767.168 539.016 766.196 540.497 765.426 541.692C764.237 543.391 763.021 545.062 761.765 546.706C760.509 548.35 759.158 549.844 757.7 551.176C757.429 551.447 757.078 551.583 756.673 551.583C756.173 551.583 755.754 551.339 755.417 550.863C755.066 550.374 754.89 549.912 754.89 549.45C754.89 549.029 755.052 548.39 755.336 547.521C755.633 546.651 755.998 545.673 756.457 544.6C756.916 543.513 757.416 542.412 757.956 541.257C758.51 540.116 759.05 539.016 759.564 537.997C760.09 536.964 760.536 536.054 760.928 535.279C761.32 534.491 761.603 533.948 761.779 533.622C763.238 530.877 764.656 528.214 766.02 525.647C767.384 523.079 768.505 520.742 769.383 518.622C769.789 517.617 769.991 516.557 769.991 515.47C769.991 515.375 769.924 515.239 769.816 515.049C769.708 514.873 769.316 514.777 768.627 514.777C767.209 514.777 765.817 515.008 764.413 515.47C763.021 515.919 761.698 516.557 760.442 517.359C759.185 518.161 758.024 519.071 756.957 520.117C755.876 521.15 754.958 522.236 754.174 523.391C753.809 523.894 753.391 524.152 752.877 524.152C752.513 524.152 752.162 524.003 751.824 523.704C751.473 523.405 751.311 523.024 751.311 522.576C751.311 522.386 751.392 522.114 751.581 521.747C752.445 520.416 753.499 519.139 754.728 517.93C755.957 516.707 757.308 515.647 758.753 514.723C760.212 513.813 761.779 513.066 763.44 512.522C765.115 511.979 766.831 511.693 768.614 511.693C769.127 511.693 769.627 511.748 770.153 511.87C770.68 511.992 771.166 512.196 771.626 512.481C772.071 512.78 772.436 513.174 772.72 513.65C772.99 514.125 773.125 514.737 773.125 515.47C773.125 516.245 773.057 516.951 772.922 517.603C772.787 518.242 772.598 518.867 772.342 519.451C772.098 520.049 771.828 520.647 771.531 521.245C771.234 521.842 770.95 522.481 770.68 523.174C769.991 524.777 769.113 526.598 768.019 528.636C766.925 530.674 765.777 532.793 764.588 534.994C763.818 536.502 763.048 538.01 762.265 539.491C761.482 540.986 760.806 542.399 760.212 543.73C761.9 541.529 763.467 539.247 764.926 536.883C766.385 534.519 767.938 532.209 769.586 529.967C770.126 529.233 770.842 528.282 771.707 527.114C772.571 525.946 773.557 524.696 774.638 523.391C775.745 522.087 776.907 520.769 778.136 519.438C779.365 518.106 780.595 516.911 781.824 515.824C783.053 514.737 784.269 513.881 785.457 513.201C786.632 512.536 787.726 512.196 788.726 512.196C789.645 512.196 790.374 512.4 790.955 512.821C791.522 513.242 791.968 513.745 792.292 514.329C792.603 514.927 792.832 515.552 792.94 516.218C793.062 516.883 793.116 517.44 793.116 517.902C793.116 519.139 792.778 520.742 792.089 522.712C791.4 524.682 790.577 526.706 789.618 528.772C790.401 527.807 791.373 526.625 792.535 525.225C793.697 523.826 794.953 522.467 796.304 521.163C797.641 519.859 799.019 518.745 800.437 517.821C801.855 516.911 803.192 516.449 804.462 516.449C805.475 516.449 806.272 516.639 806.866 517.033C807.447 517.427 807.893 517.902 808.204 518.473C808.501 519.044 808.676 519.655 808.744 520.294C808.812 520.932 808.852 521.476 808.852 521.938C808.852 522.495 808.703 523.16 808.433 523.962C808.163 524.777 807.825 525.674 807.407 526.693C806.772 528.201 806.015 529.872 805.138 531.706C804.273 533.54 803.463 535.429 802.679 537.345C801.909 539.274 801.247 541.162 800.694 543.024C800.14 544.885 799.883 546.583 799.883 548.146C799.883 549.246 799.991 549.926 800.221 550.17C800.45 550.428 800.626 550.551 800.775 550.551C801.099 550.551 801.612 550.265 802.341 549.695C803.071 549.124 803.841 548.485 804.638 547.765C805.435 547.045 806.191 546.339 806.893 545.632C807.609 544.912 808.096 544.423 808.352 544.151C809.001 543.513 809.73 542.738 810.54 541.842C811.351 540.945 812.134 540.089 812.864 539.26C813.08 539.029 813.296 538.921 813.472 538.921C813.661 538.921 813.863 538.921 814.093 538.921C814.458 538.921 814.741 539.056 814.971 539.328C815.201 539.614 815.322 539.926 815.322 540.293L815.39 540.361C815.538 540.823 815.457 541.176 815.228 541.434Z" fill="white"/>
<path d="M834.341 541.543C834.233 541.706 834.111 541.882 833.963 542.059C833.139 542.969 832.18 544.043 831.058 545.252C829.937 546.461 828.735 547.602 827.438 548.662C826.128 549.722 824.777 550.605 823.332 551.339C821.887 552.086 820.469 552.439 819.05 552.439C818.051 552.439 817.213 552.099 816.551 551.434C815.89 550.768 815.552 549.722 815.552 548.309C815.552 547.575 815.728 546.706 816.065 545.7C816.416 544.695 816.808 543.662 817.267 542.643C817.727 541.611 818.199 540.605 818.713 539.613C819.212 538.635 819.631 537.793 819.942 537.1C820.036 536.923 820.131 536.747 820.212 536.584C820.307 536.421 820.388 536.258 820.482 536.067C820.253 536.258 820.023 536.461 819.793 536.692C819.577 536.923 819.307 537.168 818.983 537.453C817.983 538.459 816.997 539.478 816.038 540.51C815.093 541.543 814.242 542.426 813.512 543.159C813.202 543.581 812.783 543.784 812.283 543.784C811.864 543.784 811.5 543.635 811.149 543.336C810.811 543.037 810.635 542.67 810.635 542.263C810.635 542.045 810.676 541.869 810.77 541.746C810.865 541.638 810.973 541.502 811.108 541.366C811.716 540.727 812.499 539.872 813.472 538.785C814.458 537.711 815.498 536.652 816.592 535.633C817.686 534.6 818.794 533.703 819.915 532.942C821.022 532.182 822.049 531.815 822.954 531.815C823.359 531.815 823.71 531.951 823.981 532.222C824.251 532.508 824.386 532.915 824.386 533.459C824.386 533.839 824.197 534.532 823.805 535.565C823.427 536.597 822.968 537.684 822.441 538.825C821.914 539.967 821.401 541.04 820.928 542.032C820.455 543.01 820.144 543.635 820.009 543.92C819.604 544.844 819.266 545.646 819.01 546.366C818.767 547.072 818.632 547.684 818.632 548.186C818.632 548.784 818.726 549.165 818.902 549.314C819.077 549.477 819.307 549.559 819.591 549.559C820.415 549.559 821.387 549.192 822.562 548.458C823.724 547.725 824.899 546.855 826.088 545.85C827.263 544.844 828.384 543.798 829.397 542.725C830.424 541.651 831.207 540.755 831.747 540.075C832.166 539.668 832.558 539.464 832.922 539.464C833.328 539.464 833.692 539.613 834.003 539.939C834.327 540.252 834.489 540.632 834.489 541.04C834.516 541.217 834.462 541.393 834.341 541.543ZM828.262 523.378C827.655 523.948 826.979 524.234 826.236 524.234C825.831 524.234 825.466 524.084 825.142 523.758C824.818 523.446 824.669 523.065 824.669 522.657C824.669 522.005 824.994 521.408 825.655 520.837C826.317 520.266 826.966 519.981 827.601 519.981C828.019 519.981 828.384 520.144 828.708 520.47C829.019 520.796 829.181 521.163 829.181 521.571C829.181 522.209 828.884 522.807 828.262 523.378Z" fill="white"/>
</g>
<defs>
<clipPath id="clip0_2432_364">
<rect width="358" height="370" fill="white" transform="translate(661 370)"/>
</clipPath>
</defs>
</svg>
