<svg width="1680" height="948" viewBox="0 0 1680 948" fill="none" xmlns="http://www.w3.org/2000/svg">
<g opacity="0.5">
<path d="M1447.26 657C1447.26 657 1430.18 711.505 1452.56 750.205C1474.99 788.905 1528.44 797.128 1528.44 797.128C1528.44 797.128 1545.57 742.623 1523.14 703.923C1500.71 665.223 1447.26 657 1447.26 657Z" fill="#417D30"/>
<path d="M1597.84 757.197C1561.86 775.907 1549.79 828.196 1549.79 828.196C1549.79 828.196 1595.97 850.156 1631.95 831.446C1667.93 812.736 1680 760.447 1680 760.447C1680 760.447 1633.82 738.438 1597.84 757.197Z" fill="#417D30"/>
<path d="M1463.16 883.045C1500.9 876.644 1525.69 832.528 1525.69 832.528C1525.69 832.528 1489.27 798.752 1451.53 805.153C1413.79 811.553 1389 855.67 1389 855.67C1389 855.67 1425.42 889.397 1463.16 883.045Z" fill="#417D30"/>
<path d="M1533.15 944.444C1533.4 946.709 1534.92 947.743 1536.54 947.792C1536.93 947.891 1537.37 947.891 1537.81 947.842C1539.58 947.595 1541.35 947.349 1543.11 947.152C1545.37 946.857 1546.55 944.346 1546.3 942.179C1537.03 855.818 1549.64 769.654 1582.82 690.235C1583.75 688.02 1582.33 685.656 1580.46 684.77C1578.85 683.982 1577.23 683.194 1575.61 682.407C1573.54 681.422 1571.29 682.948 1570.45 684.918C1536.29 766.7 1523.58 855.523 1533.15 944.444Z" fill="#417D30"/>
</g>
<g opacity="0.5">
<path d="M232.741 289.874C232.741 289.874 249.821 235.369 227.44 196.669C205.01 157.969 151.561 149.746 151.561 149.746C151.561 149.746 134.432 204.251 156.862 242.951C179.292 281.652 232.741 289.874 232.741 289.874Z" fill="#417D30"/>
<path d="M82.1608 189.677C118.137 170.967 130.211 118.677 130.211 118.677C130.211 118.677 84.0259 96.7177 48.0497 115.428C12.0734 134.138 -0.000412933 186.427 -0.000412933 186.427C-0.000412933 186.427 46.1846 208.436 82.1608 189.677Z" fill="#417D30"/>
<path d="M216.839 63.8288C179.096 70.2296 154.31 114.346 154.31 114.346C154.31 114.346 190.728 148.122 228.471 141.721C266.214 135.321 291 91.2045 291 91.2045C291 91.2045 254.582 57.4773 216.839 63.8288Z" fill="#417D30"/>
<path d="M146.849 2.42969C146.604 0.164795 145.082 -0.869171 143.462 -0.918426C143.07 -1.01691 142.628 -1.01688 142.186 -0.967651C140.419 -0.721465 138.653 -0.47528 136.886 -0.27835C134.628 0.0170912 133.45 2.52817 133.695 4.69458C142.972 91.0558 130.358 177.22 97.1792 256.639C96.2467 258.854 97.6701 261.218 99.5351 262.104C101.155 262.892 102.774 263.68 104.394 264.467C106.455 265.452 108.713 263.926 109.548 261.956C143.708 180.174 156.42 91.3512 146.849 2.42969Z" fill="#417D30"/>
</g>
</svg>
