<svg width="149" height="152" viewBox="0 0 149 152" fill="none" xmlns="http://www.w3.org/2000/svg">
<g clip-path="url(#clip0_2218_586)">
<path d="M117.861 79.7424C117.861 106.824 95.7506 128.77 68.4792 128.77C41.2079 128.77 19.0918 106.818 19.0918 79.7424C19.0918 52.6667 41.2023 30.7148 68.4792 30.7148C95.7506 30.7148 117.861 52.6612 117.861 79.7424Z" fill="#417D30"/>
<path d="M80.6614 31.0217C80.6614 37.178 75.6356 42.1679 69.4347 42.1679C63.2339 42.1679 58.208 37.178 58.208 31.0217C58.208 24.8653 63.2339 19.8755 69.4347 19.8755C75.6299 19.8755 80.6614 24.8653 80.6614 31.0217Z" fill="#417D30"/>
<path d="M110.367 40.4489C110.367 46.6109 105.341 51.6007 99.1459 51.6007C92.9395 51.6007 87.9136 46.6109 87.9136 40.4489C87.9136 34.2926 92.9395 29.3027 99.1459 29.3027C105.341 29.3027 110.367 34.2926 110.367 40.4489Z" fill="#417D30"/>
<path d="M49.7135 40.4489C49.7135 46.6109 44.682 51.6007 38.4867 51.6007C32.2859 51.6007 27.2544 46.6109 27.2544 40.4489C27.2544 34.2926 32.2859 29.3027 38.4867 29.3027C44.682 29.3027 49.7135 34.2926 49.7135 40.4489Z" fill="#417D30"/>
<path d="M124.815 65.4426C124.815 71.5989 119.789 76.5943 113.589 76.5943C107.388 76.5943 102.362 71.5989 102.362 65.4426C102.362 59.2862 107.388 54.2964 113.589 54.2964C119.789 54.2908 124.815 59.2806 124.815 65.4426Z" fill="#417D30"/>
<path d="M32.7921 65.4426C32.7921 71.5989 27.7606 76.5943 21.5597 76.5943C15.3645 76.5943 10.333 71.5989 10.333 65.4426C10.333 59.2862 15.3589 54.2964 21.5597 54.2964C27.7662 54.2908 32.7921 59.2806 32.7921 65.4426Z" fill="#417D30"/>
<path d="M56.9712 128.535C56.9712 122.379 61.9971 117.389 68.1979 117.389C74.3987 117.389 79.4246 122.379 79.4246 128.535C79.4246 134.692 74.3987 139.687 68.1979 139.687C61.9915 139.682 56.9712 134.686 56.9712 128.535Z" fill="#417D30"/>
<path d="M87.9136 118.293C87.9136 112.137 92.9395 107.142 99.1403 107.142C105.341 107.142 110.361 112.131 110.361 118.293C110.361 124.45 105.336 129.44 99.1403 129.44C92.9395 129.44 87.9136 124.45 87.9136 118.293Z" fill="#417D30"/>
<path d="M28.2778 118.93C28.2778 112.773 33.3037 107.778 39.5046 107.778C45.7054 107.778 50.7257 112.768 50.7257 118.93C50.7257 125.086 45.6998 130.076 39.5046 130.076C33.3037 130.076 28.2778 125.086 28.2778 118.93Z" fill="#417D30"/>
<path d="M10.3384 93.2995C10.3384 87.1431 15.3643 82.1533 21.5651 82.1533C27.7659 82.1533 32.7974 87.1431 32.7974 93.2995C32.7974 99.4559 27.7659 104.446 21.5651 104.446C15.3643 104.446 10.3384 99.4559 10.3384 93.2995Z" fill="#417D30"/>
<path d="M104.009 93.2995C104.009 87.1431 109.035 82.1533 115.236 82.1533C121.436 82.1533 126.462 87.1431 126.462 93.2995C126.462 99.4559 121.436 104.446 115.236 104.446C109.035 104.446 104.009 99.4559 104.009 93.2995Z" fill="#417D30"/>
<path d="M82.8032 136.405C82.8032 133.274 85.3555 130.734 88.5093 130.734C91.6576 130.734 94.2211 133.274 94.2211 136.405C94.2211 139.536 91.6576 142.076 88.5093 142.076C85.3555 142.07 82.8032 139.536 82.8032 136.405Z" fill="#417D30"/>
<path d="M130.19 84.7209C133.341 84.7209 135.896 82.182 135.896 79.0502C135.896 75.9183 133.341 73.3794 130.19 73.3794C127.038 73.3794 124.483 75.9183 124.483 79.0502C124.483 82.182 127.038 84.7209 130.19 84.7209Z" fill="#417D30"/>
<path d="M130.701 57.5726C130.701 55.9373 132.034 54.6089 133.686 54.6089C135.334 54.6089 136.672 55.9373 136.672 57.5726C136.672 59.2136 135.334 60.5364 133.686 60.5364C132.034 60.5364 130.701 59.2136 130.701 57.5726Z" fill="#417D30"/>
<path d="M108.242 136.461C108.242 134.82 109.575 133.492 111.227 133.492C112.88 133.492 114.213 134.82 114.213 136.461C114.213 138.096 112.88 139.425 111.227 139.425C109.575 139.419 108.242 138.096 108.242 136.461Z" fill="#417D30"/>
<path d="M64.4819 149.03C64.4819 147.395 65.8199 146.066 67.4671 146.066C69.1143 146.066 70.4523 147.395 70.4523 149.03C70.4523 150.666 69.1087 151.994 67.4671 151.994C65.8199 151.999 64.4819 150.671 64.4819 149.03Z" fill="#417D30"/>
<path d="M0 99.3053C0 97.6643 1.33799 96.3359 2.98517 96.3359C4.6436 96.3359 5.98159 97.6643 5.98159 99.3053C5.98159 100.941 4.6436 102.263 2.98517 102.263C1.33799 102.263 0 100.941 0 99.3053Z" fill="#417D30"/>
<path d="M1.25928 56.9979C1.25928 55.3626 2.59726 54.0342 4.25007 54.0342C5.90288 54.0342 7.24086 55.3626 7.24086 56.9979C7.24086 58.6333 5.90288 59.9673 4.25007 59.9673C2.59726 59.9673 1.25928 58.6389 1.25928 56.9979Z" fill="#417D30"/>
<path d="M67.3657 10.6996C67.3657 9.05865 68.7037 7.73584 70.3509 7.73584C72.0037 7.73584 73.3417 9.05865 73.3417 10.6996C73.3417 12.335 72.0037 13.6634 70.3509 13.6634C68.6981 13.6634 67.3657 12.335 67.3657 10.6996Z" fill="#417D30"/>
<path d="M44.8394 22.9173C44.8394 19.7861 47.3917 17.2466 50.5455 17.2466C53.6993 17.2466 56.2516 19.7861 56.2516 22.9173C56.2516 26.0486 53.6993 28.5825 50.5455 28.5825C47.3917 28.5825 44.8394 26.0486 44.8394 22.9173Z" fill="#417D30"/>
<path d="M1.92285 79.4579C1.92285 76.3267 4.48077 73.7871 7.63459 73.7871C10.7884 73.7871 13.3463 76.3267 13.3463 79.4579C13.3463 82.5835 10.7884 85.1231 7.63459 85.1231C4.48077 85.1231 1.92285 82.5835 1.92285 79.4579Z" fill="#417D30"/>
<path d="M44.4292 136.818C44.4292 133.687 46.9815 131.147 50.1353 131.147C53.2891 131.147 55.8414 133.687 55.8414 136.818C55.8414 139.949 53.2891 142.489 50.1353 142.489C46.9815 142.483 44.4292 139.944 44.4292 136.818Z" fill="#417D30"/>
<path d="M88.6217 28.9622C88.6217 28.9622 91.9892 24.3408 91.0335 19.8365C90.0778 15.3379 85.1587 12.6699 85.1587 12.6699C85.1587 12.6699 81.7912 17.2914 82.7469 21.79C83.7026 26.2943 88.6217 28.9622 88.6217 28.9622Z" fill="#417D30"/>
<path d="M126.041 43.5635C129.74 38.5904 128.16 30.7764 128.16 30.7764C128.16 30.7764 120.576 31.0275 116.877 36.0062C113.178 40.9793 114.758 48.7933 114.758 48.7933C114.758 48.7933 122.341 48.5422 126.041 43.5635Z" fill="#417D30"/>
<path d="M132.073 122.742C135.761 120.364 136.435 114.632 136.435 114.632C136.435 114.632 131.123 112.746 127.435 115.123C123.741 117.501 123.072 123.233 123.072 123.233C123.072 123.233 128.379 125.114 132.073 122.742Z" fill="#417D30"/>
<path d="M121.819 115.966C125.507 113.589 126.181 107.856 126.181 107.856C126.181 107.856 120.869 105.97 117.181 108.348C113.493 110.725 112.818 116.457 112.818 116.457C112.818 116.457 118.125 118.344 121.819 115.966Z" fill="#417D30"/>
<path d="M102.182 0C102.182 0 100.226 6.17868 102.789 10.5657C105.358 14.9527 111.48 15.8848 111.48 15.8848C111.48 15.8848 113.442 9.70617 110.873 5.31914C108.304 0.932104 102.182 0 102.182 0Z" fill="#417D30"/>
<path d="M119.43 11.3582C115.309 13.4792 113.926 19.4067 113.926 19.4067C113.926 19.4067 119.216 21.896 123.337 19.7751C127.457 17.6541 128.84 11.7266 128.84 11.7266C128.84 11.7266 123.55 9.23171 119.43 11.3582Z" fill="#417D30"/>
<path d="M104.003 25.6245C108.326 24.8989 111.165 19.8979 111.165 19.8979C111.165 19.8979 106.994 16.069 102.671 16.7946C98.3478 17.5202 95.5088 22.5212 95.5088 22.5212C95.5088 22.5212 99.6802 26.3445 104.003 25.6245Z" fill="#417D30"/>
<path d="M112.02 32.5846C112.048 32.8414 112.222 32.9586 112.408 32.9642C112.453 32.9753 112.504 32.9753 112.554 32.9697C112.757 32.9418 112.959 32.9139 113.161 32.8916C113.42 32.8581 113.555 32.5735 113.527 32.3279C112.464 22.538 113.909 12.7704 117.709 3.76752C117.816 3.51636 117.653 3.24845 117.44 3.14798C117.254 3.05868 117.068 2.96937 116.883 2.88007C116.647 2.76844 116.388 2.94147 116.293 3.16473C112.38 12.4355 110.924 22.5045 112.02 32.5846Z" fill="#417D30"/>
<path d="M148.989 90.3248C148.938 90.0904 148.887 89.8615 148.831 89.6327C148.775 89.3815 148.533 89.1918 148.286 89.242C126.698 93.8746 103.868 100.673 90.2296 119.784C90.0779 119.996 90.1678 120.303 90.3646 120.454L90.9155 120.883C91.1066 121.034 91.2978 120.995 91.4327 120.878C91.4777 120.85 91.517 120.811 91.5508 120.761C98.9434 110.407 109.119 103.765 120.312 99.1268C125.737 107.426 133.118 112.919 142.406 115.469C142.445 115.48 142.49 115.486 142.524 115.486C142.72 115.531 142.928 115.453 142.985 115.185C143.03 114.978 143.075 114.772 143.119 114.565C143.17 114.331 143.091 114.018 142.827 113.951C134.018 111.523 126.94 106.388 121.751 98.5463C124.461 97.4691 127.232 96.5202 130.026 95.6439C129.801 96.6039 128.722 101.845 131.162 105.607C133.855 109.765 139.825 110.535 139.825 110.535C139.825 110.535 141.427 104.558 138.734 100.399C136.413 96.816 131.674 95.75 130.397 95.5267C136.424 93.6569 142.58 92.1834 148.629 90.8885C148.871 90.8271 149.045 90.5815 148.989 90.3248Z" fill="#417D30"/>
<path d="M4.87396 21.4663C4.87396 21.4663 3.83955 26.9975 6.69542 30.6311C9.55129 34.2646 15.2237 34.6218 15.2237 34.6218C15.2237 34.6218 16.2581 29.0906 13.4022 25.4571C10.5463 21.8291 4.87396 21.4663 4.87396 21.4663Z" fill="#417D30"/>
<path d="M0.230469 47.7494C0.230469 47.7494 5.00337 52.7058 10.2541 52.4825C15.5049 52.2592 19.2546 46.9401 19.2546 46.9401C19.2546 46.9401 14.4817 41.9838 9.23096 42.207C3.9802 42.4247 0.230469 47.7494 0.230469 47.7494Z" fill="#417D30"/>
<path d="M26.9228 32.8137C29.3514 29.1746 27.6648 23.6489 27.6648 23.6489C27.6648 23.6489 22.0374 24.0229 19.6032 27.662C17.1746 31.3011 18.8611 36.8268 18.8611 36.8268C18.8611 36.8268 24.4941 36.4528 26.9228 32.8137Z" fill="#417D30"/>
<path d="M4.98671 61.932C5.12726 62.1217 5.2678 62.3171 5.40835 62.5069C5.56013 62.7134 5.85809 62.7971 6.06609 62.6464C23.9996 49.8593 42.2142 34.5884 47.049 11.6653C47.1052 11.4141 46.8972 11.1686 46.6554 11.1072L45.9752 10.9341C45.7391 10.8727 45.5761 10.9844 45.503 11.1406C45.4749 11.1853 45.4524 11.2355 45.4411 11.2913C42.8158 23.7101 36.1539 33.8293 27.7493 42.5141C19.4403 37.0498 10.468 34.9344 0.927777 36.2684C0.882802 36.274 0.849072 36.2851 0.809719 36.3019C0.607335 36.3354 0.449924 36.4917 0.506142 36.7596C0.545495 36.9661 0.590469 37.1726 0.635443 37.3791C0.68604 37.6135 0.882802 37.8647 1.15265 37.8312C10.2094 36.5698 18.7601 38.4842 26.6643 43.6192C20.0925 50.1997 12.5536 55.9598 5.0879 61.2789C4.89114 61.4241 4.82368 61.7199 4.98671 61.932Z" fill="#417D30"/>
<path d="M33.0169 117.138C33.0169 117.138 26.0402 117.646 23.0551 122.05C20.0699 126.454 22.2062 133.09 22.2062 133.09C22.2062 133.09 29.1828 132.582 32.168 128.178C35.1532 123.775 33.0169 117.138 33.0169 117.138Z" fill="#417D30"/>
<path d="M13.4133 126.738C15.0099 124.857 16.6908 123.027 18.3886 121.224C23.2683 116.061 28.3336 111.054 34.4276 107.248C34.1971 117.144 35.5857 127.213 40.2967 136.366C40.4036 136.573 40.6622 136.785 40.9095 136.668C41.095 136.584 41.2862 136.495 41.4717 136.411C41.6741 136.316 41.8765 136.082 41.7472 135.831C36.8675 126.348 35.6082 115.871 36.0579 105.652C36.0748 105.294 35.7206 104.987 35.3833 105.132C35.2259 105.032 35.0066 105.032 34.8548 105.121C26.2029 110.145 19.2881 117.579 12.7949 124.941C9.05644 129.272 5.77331 133.838 3.58081 139.151C3.49087 139.369 3.57519 139.671 3.82817 139.777C4.02494 139.86 4.22732 139.944 4.42408 140.028C4.6602 140.123 4.95253 140.061 5.05372 139.821C6.96513 135.183 9.75916 131.125 12.9186 127.324C12.0416 128.603 10.237 131.734 10.9622 134.943C11.9067 139.118 16.7864 141.842 16.7864 141.842C16.7864 141.842 20.137 137.79 19.1925 133.609C18.293 129.635 13.8406 126.989 13.4133 126.738Z" fill="#417D30"/>
<path d="M23.6845 112.506C23.6845 112.506 19.069 106.026 12.8401 105.25C6.61113 104.474 1.12988 109.704 1.12988 109.704C1.12988 109.704 5.74537 116.184 11.9743 116.96C18.2033 117.73 23.6845 112.506 23.6845 112.506Z" fill="#417D30"/>
<path d="M36.2718 135.987C37.9808 133.47 36.2999 129.367 36.2999 129.367C36.2999 129.367 31.8531 129.35 30.1497 131.873C28.4463 134.396 30.1216 138.493 30.1216 138.493C30.1216 138.493 34.5684 138.51 36.2718 135.987Z" fill="#417D30"/>
<path d="M38.695 79.3906C38.695 80.3673 38.4532 81.2659 37.9698 82.0808C37.4863 82.9181 36.8342 83.5655 36.0246 84.0288C35.1982 84.4976 34.3156 84.732 33.3768 84.732C32.7415 84.732 32.14 84.6316 31.5778 84.4195C31.0044 84.1962 30.386 83.839 29.7226 83.3478V89.8837H22.6504V74.0156H32.4548C33.0338 74.0156 33.5904 74.0714 34.1188 74.1719C34.6529 74.2724 35.1476 74.4231 35.6142 74.6352C36.0809 74.8417 36.5025 75.0984 36.8848 75.4166C37.2671 75.7347 37.5931 76.1031 37.863 76.5273C38.4195 77.3924 38.695 78.3468 38.695 79.3906ZM29.7226 80.9087C29.9362 80.9646 30.1274 80.9925 30.3129 80.9925C30.5659 80.9925 30.8076 80.9478 31.0269 80.8641C31.2461 80.7748 31.4373 80.6576 31.5947 80.5013C31.7521 80.345 31.8758 80.1552 31.9601 79.9264C32.05 79.7031 32.095 79.452 32.095 79.1841C32.095 78.6427 31.9545 78.2185 31.6677 77.9115C31.3867 77.6101 30.9931 77.4538 30.4872 77.4538H29.7226V80.9087Z" fill="white"/>
<path d="M51.1527 80.2894C51.1527 81.2103 50.866 81.9527 50.3038 82.5164C49.7416 83.0745 49.022 83.3592 48.145 83.3592C47.1443 83.3592 46.273 82.9797 45.5253 82.215C45.188 82.5052 44.9462 82.8959 44.7944 83.3815C44.637 83.8671 44.5639 84.4476 44.5639 85.1229V89.8951H38.0933V77.3759H44.5639V80.0382H44.6033C45.0024 79.134 45.5028 78.4419 46.1043 77.9731C46.7058 77.5042 47.3861 77.2754 48.1506 77.2754C49.0108 77.2754 49.7248 77.56 50.2982 78.1238C50.866 78.6875 51.1527 79.4075 51.1527 80.2894Z" fill="white"/>
<path d="M58.8826 77.1191C60.1812 77.1191 61.3506 77.3982 62.3962 77.9619C63.4419 78.5201 64.2514 79.3294 64.8248 80.3955C65.4039 81.4727 65.6962 82.6894 65.6962 84.0457V84.4532H59.0738C59.1862 84.7657 59.3436 85.0504 59.546 85.3016C59.7427 85.5583 59.9845 85.7704 60.26 85.949C60.5298 86.1276 60.8277 86.2616 61.1482 86.3565C61.4743 86.4513 61.8228 86.496 62.1882 86.496C62.5312 86.496 62.8741 86.4625 63.2058 86.4011C63.5375 86.3397 63.8579 86.2504 64.1559 86.1388C64.4538 86.0216 64.7293 85.882 64.9879 85.709C65.2465 85.5416 65.477 85.3462 65.6794 85.1341V87.3276C64.9317 88.2932 64.0547 88.9909 63.0427 89.4318C62.0308 89.8728 60.8671 90.0905 59.5628 90.0905C58.8376 90.096 58.1518 90.0291 57.5053 89.8895C56.8531 89.7444 56.2629 89.5435 55.7175 89.27C55.1722 88.9965 54.6888 88.6672 54.2559 88.2765C53.8286 87.8858 53.4632 87.4449 53.1652 86.9593C52.8729 86.4681 52.648 85.9323 52.4963 85.3518C52.3388 84.7713 52.2658 84.1518 52.277 83.5043C52.277 82.2764 52.5525 81.1824 53.1034 80.2224C53.66 79.2457 54.4414 78.4866 55.4365 77.9508C56.4484 77.3926 57.5952 77.1191 58.8826 77.1191ZM58.6802 82.2541H61.7272C61.7048 81.6457 61.553 81.1601 61.2719 80.8029C60.9852 80.4457 60.6085 80.2671 60.1419 80.2671C59.7259 80.2671 59.3717 80.4457 59.0906 80.7973C58.8151 81.1378 58.6746 81.5787 58.6746 82.1201V82.2541H58.6802Z" fill="white"/>
<path d="M81.2124 79.4354C81.9601 78.6763 82.6909 78.1237 83.3993 77.7832C84.1132 77.4428 84.9172 77.2753 85.8223 77.2753C87.1996 77.2753 88.279 77.6939 89.0548 78.5312C89.8475 79.374 90.2354 80.5349 90.2354 82.014V89.895H84.1189V82.3656C84.1189 81.9526 84.0064 81.6233 83.7872 81.3777C83.5679 81.1377 83.2756 81.0149 82.9214 81.0149C82.7415 81.0149 82.5391 81.054 82.3199 81.1265C82.1006 81.2047 81.9039 81.2996 81.7408 81.4168V89.8894H75.6243V82.36C75.6243 81.9693 75.5231 81.64 75.3208 81.3889C75.1127 81.1377 74.8204 81.0093 74.4325 81.0093C74.2526 81.0093 74.0502 81.054 73.831 81.1321C73.6117 81.2158 73.415 81.3163 73.2519 81.4335V89.8894H66.7812V77.3702H73.2519V78.9386C74.292 77.8223 75.5906 77.2642 77.1366 77.2642C78.0811 77.2642 78.8793 77.4372 79.5371 77.7888C80.1892 78.146 80.7458 78.693 81.2124 79.4354Z" fill="white"/>
<path d="M91.7029 77.3757C92.102 77.6046 92.5967 77.7832 93.1702 77.906C93.7492 78.0287 94.3676 78.0957 95.0254 78.0957C95.6325 78.0957 96.2172 78.0343 96.7569 77.9115C97.3022 77.7943 97.7744 77.6157 98.1736 77.3757V89.8949H91.6973V77.3757H91.7029ZM98.1342 75.5896C98.1342 76.0864 97.9543 76.5162 97.5889 76.879C97.2347 77.2418 96.8075 77.4204 96.3128 77.4204C95.8124 77.4204 95.3795 77.2418 95.0141 76.879C94.6487 76.5218 94.4688 76.092 94.4688 75.5896C94.4688 75.0985 94.6487 74.6743 95.0141 74.3227C95.3739 73.9654 95.8068 73.7812 96.3128 73.7812C96.8075 73.7812 97.2347 73.9599 97.5889 74.3115C97.9543 74.6464 98.1342 75.0761 98.1342 75.5896Z" fill="white"/>
<path d="M106.241 77.1191C107.247 77.1191 108.175 77.281 109.023 77.5991C109.872 77.9229 110.598 78.3694 111.21 78.9499C111.823 79.5248 112.295 80.2113 112.638 81.0094C112.981 81.8076 113.15 82.6783 113.15 83.6216C113.15 84.5537 112.981 85.4188 112.638 86.2058C112.295 86.9983 111.823 87.6793 111.216 88.2542C110.609 88.829 109.884 89.2756 109.035 89.5993C108.186 89.923 107.247 90.0793 106.229 90.0793C104.942 90.0793 103.773 89.8114 102.71 89.2812C101.665 88.7453 100.838 87.9918 100.242 87.0151C99.6463 86.0272 99.354 84.8941 99.354 83.616C99.354 82.349 99.6463 81.2271 100.22 80.2336C100.804 79.2457 101.62 78.4754 102.66 77.934C103.711 77.3926 104.903 77.1191 106.241 77.1191ZM106.241 84.9164C106.679 84.9164 107.033 84.7881 107.292 84.5313C107.551 84.2746 107.68 83.9285 107.68 83.4932C107.68 83.0578 107.545 82.7062 107.286 82.4494C107.028 82.1927 106.679 82.0587 106.235 82.0587C106.021 82.0587 105.836 82.0922 105.662 82.1648C105.493 82.2318 105.341 82.3322 105.223 82.4606C105.099 82.589 105.004 82.7453 104.936 82.9183C104.863 83.0913 104.835 83.2867 104.835 83.4932C104.835 83.9174 104.965 84.2578 105.229 84.5202C105.482 84.7825 105.825 84.9164 106.241 84.9164Z" fill="white"/>
<path d="M64.1897 70.4268C63.9424 70.6947 63.74 70.9012 63.5938 71.0519C63.4364 71.2026 63.3015 71.3422 63.1778 71.4761C63.0541 71.6101 62.9248 71.7329 62.7955 71.8557C62.6606 71.9785 62.4919 72.1403 62.2839 72.3468C62.0928 72.5533 61.8117 72.838 61.4463 73.1952C61.0753 73.5524 60.6817 73.9041 60.2657 74.2557C59.8497 74.6073 59.4393 74.9087 59.0289 75.1766C58.6241 75.439 58.2812 75.5729 58.0226 75.5729C57.5841 75.5729 57.2299 75.3385 56.9545 74.8808C56.679 74.4176 56.5385 73.8594 56.5385 73.2008C56.5385 72.4473 56.6509 71.6826 56.8702 70.9124C57.0894 70.1422 57.3536 69.3663 57.6628 68.5961C57.9776 67.8258 58.3206 67.0556 58.686 66.3077C59.057 65.5542 59.3943 64.8398 59.6923 64.1588C59.8666 63.7625 60.0071 63.4221 60.1083 63.143C60.2095 62.8583 60.2657 62.6239 60.2657 62.4342C60.2657 62.0044 60.2264 61.7253 60.1364 61.6137C60.0521 61.502 59.9172 61.4462 59.7204 61.4462C59.3437 61.4462 58.9052 61.6081 58.4161 61.9374C57.9214 62.2667 57.3874 62.7132 56.8027 63.277C56.2236 63.8407 55.6277 64.4937 55.0262 65.2305C54.419 65.9672 53.8119 66.7263 53.2216 67.5189C52.6257 68.3114 52.041 69.1096 51.4732 69.9189C50.9054 70.7338 50.3938 71.4873 49.9329 72.1794C49.7867 72.4082 49.5899 72.5199 49.3651 72.5199C49.2133 72.5199 49.0727 72.4585 48.9378 72.3357C48.8029 72.2129 48.7354 72.0566 48.7354 71.8724C48.7354 71.7608 48.7635 71.6491 48.8141 71.5375C49.0053 71.197 49.2639 70.7394 49.5843 70.1645C49.9047 69.5896 50.2477 68.9589 50.6075 68.2724C50.9673 67.5858 51.3327 66.8714 51.7037 66.1402C52.0748 65.4091 52.4064 64.7002 52.6988 64.0249C52.9967 63.3439 53.2329 62.7188 53.424 62.1439C53.6151 61.569 53.7107 61.1169 53.7107 60.7765C53.7107 60.3802 53.6489 60.1011 53.5364 59.9392C53.424 59.7774 53.3003 59.6992 53.1654 59.6992C52.7325 59.6992 52.2153 59.9392 51.6306 60.4081C51.046 60.8769 50.422 61.4574 49.7811 62.1439C49.1346 62.8304 48.5105 63.5616 47.8978 64.3374C47.2906 65.1133 46.7565 65.7998 46.3068 66.4026C45.6997 67.1951 45.1543 67.9598 44.6709 68.6966C44.1874 69.4333 43.7826 70.0417 43.4622 70.5329C42.9675 71.2305 42.4615 71.9171 41.9387 72.5924C41.4158 73.2678 40.8537 73.8817 40.2465 74.4287C40.1341 74.5403 39.9879 74.5962 39.8193 74.5962C39.6112 74.5962 39.437 74.4957 39.2964 74.3003C39.1503 74.0994 39.0772 73.9096 39.0772 73.7199C39.0772 73.5468 39.1446 73.2845 39.2627 72.9273C39.3864 72.5701 39.5382 72.1682 39.7293 71.7273C39.9204 71.2808 40.1285 70.8287 40.3533 70.3542C40.5838 69.8854 40.8087 69.4333 41.0223 69.0147C41.2416 68.5905 41.4271 68.2165 41.5901 67.8984C41.7532 67.5747 41.8712 67.3514 41.9443 67.2175C42.5514 66.09 43.1417 64.996 43.7095 63.9411C44.2773 62.8862 44.7439 61.9262 45.1094 61.0555C45.278 60.6425 45.3623 60.2071 45.3623 59.7606C45.3623 59.7216 45.3342 59.6657 45.2893 59.5876C45.2443 59.515 45.0813 59.476 44.7945 59.476C44.2043 59.476 43.6252 59.5709 43.0405 59.7606C42.4615 59.9448 41.9106 60.2071 41.3877 60.5365C40.8649 60.8658 40.3814 61.2397 39.9373 61.6695C39.4876 62.0937 39.1053 62.5402 38.7792 63.0146C38.6274 63.2211 38.4532 63.3272 38.2395 63.3272C38.0877 63.3272 37.9416 63.2658 37.801 63.143C37.6549 63.0202 37.5874 62.8639 37.5874 62.6797C37.5874 62.6016 37.6211 62.49 37.6998 62.3393C38.0596 61.7923 38.4981 61.2676 39.0097 60.7709C39.5213 60.2685 40.0835 59.8332 40.685 59.4536C41.2922 59.0797 41.9443 58.7727 42.6358 58.5495C43.3329 58.3262 44.0468 58.209 44.7889 58.209C45.0025 58.209 45.2106 58.2313 45.4298 58.2815C45.6491 58.3318 45.8514 58.4155 46.0426 58.5327C46.2281 58.6555 46.3799 58.8174 46.4979 59.0127C46.6104 59.2081 46.6666 59.4592 46.6666 59.7606C46.6666 60.0788 46.6385 60.369 46.5823 60.6369C46.5261 60.8992 46.4473 61.156 46.3405 61.396C46.2393 61.6416 46.1269 61.8872 46.0032 62.1328C45.8795 62.3783 45.7615 62.6407 45.6491 62.9253C45.3623 63.5839 44.9969 64.3319 44.5416 65.1691C44.0862 66.0063 43.6083 66.877 43.1136 67.7812C42.7932 68.4007 42.4727 69.0203 42.1467 69.6287C41.8206 70.2426 41.5395 70.8231 41.2922 71.3701C41.9949 70.4659 42.647 69.5282 43.2542 68.557C43.8613 67.5858 44.5078 66.637 45.1937 65.7161C45.4186 65.4147 45.7165 65.024 46.0763 64.5439C46.4361 64.0639 46.8465 63.5504 47.2962 63.0146C47.7572 62.4788 48.2407 61.9374 48.7523 61.3904C49.2639 60.8434 49.7754 60.3523 50.287 59.9057C50.7986 59.4592 51.3046 59.1076 51.7993 58.8285C52.2884 58.555 52.7438 58.4155 53.1598 58.4155C53.542 58.4155 53.8456 58.4992 54.0874 58.6722C54.3235 58.8453 54.509 59.0518 54.6439 59.2918C54.7732 59.5374 54.8688 59.7941 54.9138 60.0676C54.9644 60.3411 54.9868 60.5699 54.9868 60.7597C54.9868 61.2676 54.8463 61.9262 54.5596 62.7356C54.2729 63.5449 53.93 64.3765 53.5308 65.2249C53.8569 64.8286 54.2616 64.343 54.7451 63.7681C55.2286 63.1932 55.7514 62.6351 56.3136 62.0993C56.8701 61.5634 57.4436 61.1058 58.0339 60.7262C58.6242 60.3523 59.1807 60.1625 59.7092 60.1625C60.1308 60.1625 60.4625 60.2406 60.7098 60.4025C60.9516 60.5644 61.1371 60.7597 61.2664 60.9941C61.3901 61.2286 61.4632 61.4797 61.4913 61.7421C61.5194 62.0044 61.5362 62.2276 61.5362 62.4174C61.5362 62.6462 61.4744 62.9197 61.362 63.249C61.2495 63.5839 61.109 63.9523 60.9347 64.3709C60.6705 64.9905 60.3557 65.677 59.9902 66.4305C59.6305 67.184 59.2931 67.9598 58.9671 68.7468C58.6466 69.5394 58.3712 70.3152 58.1407 71.0798C57.9102 71.8445 57.8034 72.5422 57.8034 73.184C57.8034 73.6361 57.8483 73.9152 57.9439 74.0157C58.0395 74.1217 58.1126 74.172 58.1744 74.172C58.3093 74.172 58.523 74.0548 58.8265 73.8203C59.1301 73.5859 59.4506 73.3236 59.7822 73.0278C60.1139 72.7319 60.4287 72.4417 60.7211 72.1515C61.019 71.8557 61.2214 71.6547 61.3282 71.5431C61.5981 71.2808 61.9017 70.9626 62.239 70.5943C62.5763 70.2259 62.9023 69.8742 63.2059 69.5338C63.2959 69.4389 63.3858 69.3942 63.4589 69.3942C63.5376 69.3942 63.6219 69.3942 63.7175 69.3942C63.8693 69.3942 63.9873 69.4501 64.0829 69.5617C64.1785 69.6789 64.2291 69.8073 64.2291 69.958L64.2572 69.9859C64.319 70.1756 64.2853 70.3208 64.1897 70.4268Z" fill="white"/>
<path d="M72.1446 70.4716C72.0996 70.5385 72.049 70.6111 71.9872 70.6836C71.6442 71.0576 71.2451 71.4985 70.7785 71.9953C70.3119 72.492 69.8115 72.9609 69.2718 73.3962C68.7265 73.8316 68.1643 74.1944 67.5628 74.4958C66.9613 74.8028 66.371 74.9479 65.7807 74.9479C65.3647 74.9479 65.0161 74.8083 64.7407 74.5349C64.4652 74.2614 64.3247 73.8316 64.3247 73.2511C64.3247 72.9497 64.3977 72.5925 64.5383 72.1795C64.6844 71.7665 64.8475 71.3423 65.0386 70.9237C65.2298 70.4995 65.4265 70.0864 65.6402 69.679C65.8482 69.2771 66.0224 68.9311 66.1517 68.6464C66.1911 68.5739 66.2304 68.5013 66.2642 68.4343C66.3035 68.3673 66.3373 68.3004 66.3766 68.2222C66.281 68.3004 66.1855 68.3841 66.0899 68.479C65.9999 68.5739 65.8875 68.6743 65.7526 68.7915C65.3366 69.2046 64.9262 69.6232 64.527 70.0474C64.1335 70.4716 63.7793 70.8343 63.4758 71.1357C63.3465 71.3088 63.1722 71.3925 62.9642 71.3925C62.7899 71.3925 62.6381 71.3311 62.492 71.2083C62.3514 71.0855 62.2783 70.9348 62.2783 70.7674C62.2783 70.6781 62.2952 70.6055 62.3345 70.5553C62.3739 70.5106 62.4189 70.4548 62.4751 70.399C62.7281 70.1367 63.0541 69.785 63.4589 69.3385C63.8693 68.8976 64.3022 68.4622 64.7575 68.0436C65.2129 67.6194 65.6739 67.251 66.1405 66.9385C66.6015 66.6259 67.0287 66.4752 67.4054 66.4752C67.5741 66.4752 67.7202 66.531 67.8327 66.6427C67.9451 66.7599 68.0013 66.9273 68.0013 67.1506C68.0013 67.3069 67.9226 67.5915 67.7596 68.0157C67.6022 68.4399 67.411 68.8864 67.1918 69.3553C66.9725 69.8241 66.7589 70.265 66.5621 70.6725C66.3654 71.0744 66.2361 71.3311 66.1798 71.4483C66.0112 71.8278 65.8706 72.1572 65.7638 72.453C65.6626 72.7432 65.6064 72.9944 65.6064 73.2009C65.6064 73.4465 65.6458 73.6028 65.7189 73.6641C65.7919 73.7311 65.8875 73.7646 66.0056 73.7646C66.3485 73.7646 66.7533 73.6139 67.2424 73.3125C67.7258 73.0111 68.2149 72.6539 68.7097 72.2409C69.1987 71.8278 69.6654 71.3981 70.087 70.9571C70.5142 70.5162 70.8403 70.1478 71.0652 69.8688C71.2395 69.7013 71.4025 69.6176 71.5543 69.6176C71.7229 69.6176 71.8747 69.679 72.004 69.8129C72.1389 69.9413 72.2064 70.0976 72.2064 70.265C72.2177 70.3376 72.1952 70.4102 72.1446 70.4716ZM69.6148 63.0091C69.3618 63.2436 69.0807 63.3608 68.7715 63.3608C68.6028 63.3608 68.451 63.2994 68.3161 63.1654C68.1812 63.037 68.1194 62.8808 68.1194 62.7133C68.1194 62.4454 68.2543 62.1998 68.5298 61.9654C68.8052 61.731 69.0751 61.6138 69.3393 61.6138C69.5136 61.6138 69.6654 61.6807 69.8003 61.8147C69.9296 61.9487 69.997 62.0994 69.997 62.2668C69.997 62.5291 69.8734 62.7747 69.6148 63.0091Z" fill="white"/>
</g>
<defs>
<clipPath id="clip0_2218_586">
<rect width="149" height="152" fill="white"/>
</clipPath>
</defs>
</svg>
