<svg width="99" height="102" viewBox="0 0 99 102" fill="none" xmlns="http://www.w3.org/2000/svg">
<path d="M78.3103 53.5114C78.3103 71.6844 63.6194 86.4115 45.4995 86.4115C27.3797 86.4115 12.6851 71.6806 12.6851 53.5114C12.6851 35.3422 27.3759 20.6113 45.4995 20.6113C63.6194 20.6113 78.3103 35.3385 78.3103 53.5114Z" fill="#417D30"/>
<path d="M53.594 20.8176C53.594 24.9488 50.2547 28.2972 46.1347 28.2972C42.0146 28.2972 38.6753 24.9488 38.6753 20.8176C38.6753 16.6863 42.0146 13.3379 46.1347 13.3379C50.2509 13.3379 53.594 16.6863 53.594 20.8176Z" fill="#417D30"/>
<path d="M73.3313 27.1437C73.3313 31.2787 69.992 34.6272 65.8757 34.6272C61.7519 34.6272 58.4126 31.2787 58.4126 27.1437C58.4126 23.0125 61.7519 19.6641 65.8757 19.6641C69.992 19.6641 73.3313 23.0125 73.3313 27.1437Z" fill="#417D30"/>
<path d="M33.0314 27.1437C33.0314 31.2787 29.6883 34.6272 25.572 34.6272C21.452 34.6272 18.1089 31.2787 18.1089 27.1437C18.1089 23.0125 21.452 19.6641 25.572 19.6641C29.6883 19.6641 33.0314 23.0125 33.0314 27.1437Z" fill="#417D30"/>
<path d="M82.9309 43.9157C82.9309 48.047 79.5916 51.3991 75.4716 51.3991C71.3516 51.3991 68.0122 48.047 68.0122 43.9157C68.0122 39.7845 71.3516 36.436 75.4716 36.436C79.5916 36.4323 82.9309 39.7807 82.9309 43.9157Z" fill="#417D30"/>
<path d="M21.7877 43.9157C21.7877 48.047 18.4446 51.3991 14.3246 51.3991C10.2083 51.3991 6.86523 48.047 6.86523 43.9157C6.86523 39.7845 10.2046 36.436 14.3246 36.436C18.4484 36.4323 21.7877 39.7807 21.7877 43.9157Z" fill="#417D30"/>
<path d="M37.8535 86.2541C37.8535 82.1228 41.1929 78.7744 45.3129 78.7744C49.4329 78.7744 52.7722 82.1228 52.7722 86.2541C52.7722 90.3853 49.4329 93.7375 45.3129 93.7375C41.1891 93.7338 37.8535 90.3816 37.8535 86.2541Z" fill="#417D30"/>
<path d="M58.4126 79.3814C58.4126 75.2501 61.7519 71.8979 65.872 71.8979C69.992 71.8979 73.3276 75.2464 73.3276 79.3814C73.3276 83.5126 69.9882 86.861 65.872 86.861C61.7519 86.861 58.4126 83.5126 58.4126 79.3814Z" fill="#417D30"/>
<path d="M18.7886 79.8086C18.7886 75.6774 22.1279 72.3252 26.2479 72.3252C30.368 72.3252 33.7036 75.6736 33.7036 79.8086C33.7036 83.9399 30.3642 87.2883 26.2479 87.2883C22.1279 87.2883 18.7886 83.9399 18.7886 79.8086Z" fill="#417D30"/>
<path d="M6.86914 62.6091C6.86914 58.4778 10.2085 55.1294 14.3285 55.1294C18.4485 55.1294 21.7916 58.4778 21.7916 62.6091C21.7916 66.7403 18.4485 70.0887 14.3285 70.0887C10.2085 70.0887 6.86914 66.7403 6.86914 62.6091Z" fill="#417D30"/>
<path d="M69.1064 62.6091C69.1064 58.4778 72.4458 55.1294 76.5658 55.1294C80.6858 55.1294 84.0252 58.4778 84.0252 62.6091C84.0252 66.7403 80.6858 70.0887 76.5658 70.0887C72.4458 70.0887 69.1064 66.7403 69.1064 62.6091Z" fill="#417D30"/>
<path d="M55.0171 91.5354C55.0171 89.4342 56.7129 87.73 58.8084 87.73C60.9002 87.73 62.6035 89.4342 62.6035 91.5354C62.6035 93.6366 60.9002 95.3407 58.8084 95.3407C56.7129 95.337 55.0171 93.6366 55.0171 91.5354Z" fill="#417D30"/>
<path d="M86.5018 56.8525C88.5957 56.8525 90.2931 55.1487 90.2931 53.0471C90.2931 50.9454 88.5957 49.2417 86.5018 49.2417C84.4079 49.2417 82.7104 50.9454 82.7104 53.0471C82.7104 55.1487 84.4079 56.8525 86.5018 56.8525Z" fill="#417D30"/>
<path d="M86.8418 38.6343C86.8418 37.5369 87.7271 36.6455 88.8252 36.6455C89.9197 36.6455 90.8087 37.5369 90.8087 38.6343C90.8087 39.7355 89.9197 40.6232 88.8252 40.6232C87.7271 40.6232 86.8418 39.7355 86.8418 38.6343Z" fill="#417D30"/>
<path d="M71.9189 91.5727C71.9189 90.4715 72.8042 89.5801 73.9024 89.5801C75.0006 89.5801 75.8858 90.4715 75.8858 91.5727C75.8858 92.6701 75.0006 93.5615 73.9024 93.5615C72.8042 93.5578 71.9189 92.6701 71.9189 91.5727Z" fill="#417D30"/>
<path d="M42.8438 100.007C42.8438 98.91 43.7327 98.0186 44.8272 98.0186C45.9216 98.0186 46.8106 98.91 46.8106 100.007C46.8106 101.105 45.9179 101.996 44.8272 101.996C43.7327 102 42.8438 101.109 42.8438 100.007Z" fill="#417D30"/>
<path d="M0 66.6396C0 65.5384 0.888998 64.647 1.98344 64.647C3.08535 64.647 3.97434 65.5384 3.97434 66.6396C3.97434 67.737 3.08535 68.6246 1.98344 68.6246C0.888998 68.6246 0 67.737 0 66.6396Z" fill="#417D30"/>
<path d="M0.836914 38.2486C0.836914 37.1512 1.72591 36.2598 2.82409 36.2598C3.92226 36.2598 4.81126 37.1512 4.81126 38.2486C4.81126 39.346 3.92226 40.2412 2.82409 40.2412C1.72591 40.2412 0.836914 39.3498 0.836914 38.2486Z" fill="#417D30"/>
<path d="M44.7598 7.18024C44.7598 6.07908 45.6488 5.19141 46.7432 5.19141C47.8414 5.19141 48.7304 6.07908 48.7304 7.18024C48.7304 8.27766 47.8414 9.16908 46.7432 9.16908C45.645 9.16908 44.7598 8.27766 44.7598 7.18024Z" fill="#417D30"/>
<path d="M29.7925 15.3791C29.7925 13.2779 31.4883 11.5737 33.5838 11.5737C35.6793 11.5737 37.3751 13.2779 37.3751 15.3791C37.3751 17.4803 35.6793 19.1808 33.5838 19.1808C31.4883 19.1808 29.7925 17.4803 29.7925 15.3791Z" fill="#417D30"/>
<path d="M1.27734 53.3205C1.27734 51.2193 2.9769 49.5151 5.07239 49.5151C7.16789 49.5151 8.86744 51.2193 8.86744 53.3205C8.86744 55.418 7.16789 57.1222 5.07239 57.1222C2.9769 57.1222 1.27734 55.418 1.27734 53.3205Z" fill="#417D30"/>
<path d="M29.52 91.8127C29.52 89.7115 31.2158 88.0073 33.3113 88.0073C35.4068 88.0073 37.1026 89.7115 37.1026 91.8127C37.1026 93.9139 35.4068 95.6181 33.3113 95.6181C31.2158 95.6143 29.52 93.9102 29.52 91.8127Z" fill="#417D30"/>
<path d="M58.883 19.4349C58.883 19.4349 61.1205 16.3337 60.4855 13.3111C59.8505 10.2923 56.5821 8.50195 56.5821 8.50195C56.5821 8.50195 54.3447 11.6032 54.9797 14.622C55.6147 17.6446 58.883 19.4349 58.883 19.4349Z" fill="#417D30"/>
<path d="M83.7453 29.2332C86.2031 25.896 85.1535 20.6523 85.1535 20.6523C85.1535 20.6523 80.1146 20.8209 77.6568 24.1618C75.199 27.499 76.2486 32.7427 76.2486 32.7427C76.2486 32.7427 81.2875 32.5741 83.7453 29.2332Z" fill="#417D30"/>
<path d="M87.7531 82.3663C90.2035 80.7707 90.6517 76.9241 90.6517 76.9241C90.6517 76.9241 87.1219 75.6582 84.6715 77.2537C82.2174 78.8493 81.7729 82.6959 81.7729 82.6959C81.7729 82.6959 85.2991 83.9581 87.7531 82.3663Z" fill="#417D30"/>
<path d="M80.9397 77.8194C83.39 76.2238 83.8382 72.3773 83.8382 72.3773C83.8382 72.3773 80.3084 71.1113 77.8581 72.7069C75.4077 74.3024 74.9595 78.149 74.9595 78.149C74.9595 78.149 78.4856 79.415 80.9397 77.8194Z" fill="#417D30"/>
<path d="M67.8929 0C67.8929 0 66.5931 4.14622 68.2963 7.09015C70.0034 10.0341 74.0711 10.6596 74.0711 10.6596C74.0711 10.6596 75.3747 6.51335 73.6677 3.56942C71.9607 0.625491 67.8929 0 67.8929 0Z" fill="#417D30"/>
<path d="M79.3526 7.62183C76.6147 9.0451 75.6958 13.0228 75.6958 13.0228C75.6958 13.0228 79.2107 14.6932 81.9487 13.27C84.6866 11.8467 85.6055 7.86903 85.6055 7.86903C85.6055 7.86903 82.0906 6.19481 79.3526 7.62183Z" fill="#417D30"/>
<path d="M69.103 17.1952C71.9754 16.7083 73.8618 13.3524 73.8618 13.3524C73.8618 13.3524 71.0902 10.783 68.2177 11.2699C65.3453 11.7568 63.459 15.1127 63.459 15.1127C63.459 15.1127 66.2306 17.6784 69.103 17.1952Z" fill="#417D30"/>
<path d="M74.4296 21.8659C74.4483 22.0382 74.5641 22.1168 74.6873 22.1206C74.7172 22.1281 74.7508 22.1281 74.7845 22.1243C74.9189 22.1056 75.0534 22.0869 75.1879 22.0719C75.3597 22.0494 75.4493 21.8584 75.4307 21.6936C74.7247 15.1241 75.6847 8.56952 78.2097 2.5281C78.2807 2.35955 78.1724 2.17977 78.0304 2.11235C77.9072 2.05242 77.7839 1.9925 77.6606 1.93257C77.5037 1.85766 77.3319 1.97377 77.2684 2.12359C74.6687 8.34479 73.7012 15.1016 74.4296 21.8659Z" fill="#417D30"/>
<path d="M98.9923 60.6129C98.9587 60.4556 98.9251 60.302 98.8877 60.1485C98.8504 59.9799 98.6897 59.8526 98.5254 59.8863C84.1819 62.995 69.0129 67.557 59.9511 80.3814C59.8503 80.5238 59.91 80.7298 60.0408 80.8309L60.4068 81.1193C60.5338 81.2204 60.6608 81.1942 60.7505 81.1155C60.7803 81.0968 60.8065 81.0706 60.8289 81.0369C65.7408 74.0891 72.5017 69.632 79.9386 66.5195C83.5432 72.089 88.4476 75.7745 94.6183 77.4862C94.6444 77.4937 94.6743 77.4974 94.6967 77.4974C94.8275 77.5274 94.9657 77.475 95.003 77.2952C95.0329 77.1566 95.0628 77.018 95.0927 76.8794C95.1263 76.7221 95.074 76.5124 94.8984 76.4674C89.0452 74.8382 84.3425 71.3923 80.8948 66.13C82.6953 65.4071 84.5367 64.7704 86.3932 64.1823C86.2438 64.8266 85.5266 68.3435 87.1477 70.868C88.9369 73.6583 92.9038 74.1752 92.9038 74.1752C92.9038 74.1752 93.9683 70.1638 92.1791 67.3735C90.6365 64.9689 87.4876 64.2535 86.6397 64.1037C90.6439 62.849 94.7341 61.8602 98.7533 60.9912C98.9139 60.95 99.0297 60.7852 98.9923 60.6129Z" fill="#417D30"/>
<path d="M3.23848 14.4048C3.23848 14.4048 2.55119 18.1165 4.44871 20.5548C6.34624 22.9931 10.1151 23.2328 10.1151 23.2328C10.1151 23.2328 10.8024 19.5211 8.90491 17.0828C7.00738 14.6482 3.23848 14.4048 3.23848 14.4048Z" fill="#417D30"/>
<path d="M0.15332 32.042C0.15332 32.042 3.32458 35.368 6.81333 35.2182C10.3021 35.0683 12.7935 31.4989 12.7935 31.4989C12.7935 31.4989 9.62227 28.173 6.13351 28.3228C2.64476 28.4689 0.15332 32.042 0.15332 32.042Z" fill="#417D30"/>
<path d="M17.8885 22.0192C19.5021 19.5771 18.3816 15.8691 18.3816 15.8691C18.3816 15.8691 14.6425 16.1201 13.0252 18.5621C11.4115 21.0042 12.5321 24.7122 12.5321 24.7122C12.5321 24.7122 16.2749 24.4612 17.8885 22.0192Z" fill="#417D30"/>
<path d="M3.31329 41.5594C3.40667 41.6868 3.50005 41.8179 3.59343 41.9452C3.69428 42.0838 3.89225 42.14 4.03046 42.0388C15.946 33.458 28.0483 23.2104 31.2607 7.82784C31.298 7.65929 31.1598 7.49449 30.9992 7.45329L30.5473 7.33718C30.3904 7.29598 30.282 7.37089 30.2335 7.47577C30.2148 7.50573 30.1999 7.53944 30.1924 7.57689C28.448 15.9105 24.0217 22.701 18.4375 28.529C12.9167 24.8622 6.95519 23.4426 0.616409 24.3378C0.586527 24.3416 0.564115 24.349 0.537969 24.3603C0.403498 24.3828 0.29891 24.4876 0.336263 24.6674C0.36241 24.806 0.392292 24.9446 0.422175 25.0832C0.455792 25.2405 0.586527 25.409 0.765821 25.3865C6.78337 24.5401 12.4647 25.8248 17.7165 29.2706C13.35 33.6865 8.34098 37.5518 3.38052 41.1212C3.24979 41.2186 3.20496 41.4171 3.31329 41.5594Z" fill="#417D30"/>
<path d="M21.9376 78.606C21.9376 78.606 17.3021 78.9468 15.3186 81.902C13.3352 84.8571 14.7546 89.3105 14.7546 89.3105C14.7546 89.3105 19.3901 88.9696 21.3735 86.0145C23.357 83.0593 21.9376 78.606 21.9376 78.606Z" fill="#417D30"/>
<path d="M8.91266 85.0483C9.97348 83.786 11.0903 82.5575 12.2184 81.3477C15.4606 77.8832 18.8261 74.5235 22.8752 71.9691C22.722 78.6098 23.6446 85.3666 26.7748 91.5092C26.8458 91.6477 27.0176 91.7901 27.1819 91.7114C27.3052 91.6552 27.4322 91.5953 27.5555 91.5391C27.6899 91.4754 27.8244 91.3181 27.7385 91.1496C24.4963 84.7861 23.6596 77.7558 23.9584 70.8979C23.9696 70.6582 23.7343 70.4522 23.5102 70.5496C23.4056 70.4822 23.2599 70.4822 23.159 70.5421C17.4104 73.913 12.816 78.902 8.50178 83.8422C6.01781 86.7487 3.83641 89.8125 2.37964 93.3781C2.31988 93.5242 2.37591 93.7265 2.544 93.7976C2.67473 93.8538 2.8092 93.91 2.93994 93.9662C3.09682 94.0299 3.29105 93.9886 3.35829 93.8276C4.62829 90.7151 6.48472 87.9922 8.58395 85.4415C8.00125 86.2992 6.80222 88.4004 7.28407 90.5541C7.9116 93.3557 11.1538 95.1835 11.1538 95.1835C11.1538 95.1835 13.3801 92.4643 12.7525 89.6589C12.1549 86.9921 9.19654 85.2168 8.91266 85.0483Z" fill="#417D30"/>
<path d="M15.7369 75.4975C15.7369 75.4975 12.6703 71.149 8.53158 70.6284C4.39288 70.1077 0.750977 73.6172 0.750977 73.6172C0.750977 73.6172 3.81765 77.9657 7.95634 78.4863C12.095 79.0032 15.7369 75.4975 15.7369 75.4975Z" fill="#417D30"/>
<path d="M24.1 91.2546C25.2356 89.5654 24.1187 86.8125 24.1187 86.8125C24.1187 86.8125 21.1641 86.8013 20.0323 88.4942C18.9005 90.1872 20.0136 92.9363 20.0136 92.9363C20.0136 92.9363 22.9683 92.9476 24.1 91.2546Z" fill="#417D30"/>
<path d="M25.7098 53.2753C25.7098 53.9308 25.5492 54.5338 25.228 55.0806C24.9067 55.6425 24.4734 56.0769 23.9356 56.3878C23.3865 56.7024 22.8 56.8597 22.1762 56.8597C21.7542 56.8597 21.3545 56.7923 20.9809 56.65C20.5999 56.5002 20.1891 56.2605 19.7483 55.9309V60.3168H15.0493V49.6685H21.5637C21.9484 49.6685 22.3182 49.7059 22.6693 49.7733C23.0241 49.8407 23.3529 49.9419 23.6629 50.0842C23.9729 50.2228 24.2531 50.3951 24.5071 50.6086C24.7611 50.8221 24.9777 51.0693 25.157 51.3539C25.5268 51.9345 25.7098 52.5749 25.7098 53.2753ZM19.7483 54.2941C19.8902 54.3316 20.0172 54.3503 20.1405 54.3503C20.3086 54.3503 20.4692 54.3203 20.6149 54.2641C20.7606 54.2042 20.8876 54.1255 20.9922 54.0207C21.0967 53.9158 21.1789 53.7885 21.2349 53.6349C21.2947 53.4851 21.3246 53.3165 21.3246 53.1367C21.3246 52.7734 21.2312 52.4888 21.0407 52.2828C20.854 52.0805 20.5925 51.9757 20.2563 51.9757H19.7483V54.2941Z" fill="white"/>
<path d="M33.9871 53.8785C33.9871 54.4965 33.7966 54.9946 33.4231 55.3729C33.0496 55.7475 32.5715 55.9385 31.9887 55.9385C31.3239 55.9385 30.7449 55.6838 30.2481 55.1707C30.024 55.3655 29.8634 55.6276 29.7625 55.9535C29.6579 56.2793 29.6094 56.6689 29.6094 57.1221V60.3244H25.3101V51.9234H29.6094V53.71H29.6355C29.9007 53.1032 30.2332 52.6388 30.6328 52.3241C31.0325 52.0095 31.4845 51.856 31.9925 51.856C32.564 51.856 33.0384 52.047 33.4194 52.4253C33.7966 52.8036 33.9871 53.2867 33.9871 53.8785Z" fill="white"/>
<path d="M39.1231 51.751C39.986 51.751 40.7629 51.9382 41.4577 52.3165C42.1524 52.6911 42.6903 53.2342 43.0713 53.9496C43.456 54.6724 43.6503 55.4889 43.6503 56.3991V56.6725H39.2501C39.3248 56.8823 39.4294 57.0733 39.5639 57.2418C39.6946 57.4141 39.8552 57.5564 40.0383 57.6763C40.2175 57.7961 40.4155 57.886 40.6284 57.9497C40.8451 58.0134 41.0767 58.0433 41.3195 58.0433C41.5473 58.0433 41.7752 58.0209 41.9955 57.9797C42.2159 57.9385 42.4288 57.8785 42.6268 57.8036C42.8248 57.725 43.0078 57.6313 43.1796 57.5152C43.3514 57.4029 43.5046 57.2718 43.6391 57.1295V58.6014C43.1423 59.2494 42.5596 59.7176 41.8872 60.0135C41.2149 60.3093 40.4417 60.4554 39.5751 60.4554C39.0932 60.4592 38.6375 60.4142 38.208 60.3206C37.7747 60.2232 37.3825 60.0884 37.0201 59.9048C36.6578 59.7213 36.3366 59.5003 36.049 59.2381C35.7651 58.976 35.5223 58.6801 35.3243 58.3542C35.1301 58.0246 34.9807 57.6651 34.8798 57.2755C34.7752 56.886 34.7267 56.4703 34.7341 56.0358C34.7341 55.2118 34.9172 54.4777 35.2832 53.8334C35.653 53.178 36.1722 52.6686 36.8334 52.3091C37.5057 51.9345 38.2677 51.751 39.1231 51.751ZM38.9886 55.1968H41.0132C40.9982 54.7885 40.8974 54.4627 40.7106 54.223C40.5201 53.9833 40.2698 53.8634 39.9598 53.8634C39.6834 53.8634 39.4481 53.9833 39.2613 54.2192C39.0783 54.4477 38.9849 54.7436 38.9849 55.1069V55.1968H38.9886Z" fill="white"/>
<path d="M53.9596 53.3056C54.4564 52.7962 54.942 52.4254 55.4126 52.197C55.887 51.9685 56.4211 51.8561 57.0225 51.8561C57.9377 51.8561 58.6548 52.137 59.1703 52.6989C59.697 53.2644 59.9547 54.0435 59.9547 55.036V60.3246H55.8907V55.272C55.8907 54.9948 55.816 54.7738 55.6703 54.609C55.5247 54.448 55.3304 54.3656 55.0951 54.3656C54.9756 54.3656 54.8411 54.3918 54.6954 54.4405C54.5497 54.4929 54.419 54.5566 54.3107 54.6353V60.3209H50.2467V55.2682C50.2467 55.0061 50.1795 54.7851 50.045 54.6165C49.9068 54.448 49.7125 54.3618 49.4548 54.3618C49.3353 54.3618 49.2008 54.3918 49.0551 54.4442C48.9095 54.5004 48.7787 54.5678 48.6704 54.6465V60.3209H44.3711V51.9198H48.6704V52.9723C49.3614 52.2232 50.2243 51.8486 51.2515 51.8486C51.879 51.8486 52.4094 51.9647 52.8465 52.2007C53.2797 52.4404 53.6495 52.8075 53.9596 53.3056Z" fill="white"/>
<path d="M60.93 51.9233C61.1952 52.0769 61.5239 52.1967 61.9049 52.2791C62.2896 52.3615 62.7005 52.4065 63.1376 52.4065C63.541 52.4065 63.9294 52.3653 64.288 52.2829C64.6503 52.2042 64.9641 52.0844 65.2293 51.9233V60.3244H60.9263V51.9233H60.93ZM65.2032 50.7248C65.2032 51.0581 65.0836 51.3465 64.8408 51.59C64.6055 51.8334 64.3216 51.9533 63.9929 51.9533C63.6605 51.9533 63.3729 51.8334 63.1301 51.59C62.8873 51.3503 62.7678 51.0618 62.7678 50.7248C62.7678 50.3952 62.8873 50.1105 63.1301 49.8745C63.3691 49.6348 63.6568 49.5112 63.9929 49.5112C64.3216 49.5112 64.6055 49.6311 64.8408 49.867C65.0836 50.0918 65.2032 50.3802 65.2032 50.7248Z" fill="white"/>
<path d="M70.5894 51.751C71.258 51.751 71.8743 51.8596 72.4384 52.0731C73.0024 52.2903 73.4842 52.59 73.8914 52.9795C74.2985 53.3653 74.6123 53.826 74.8402 54.3616C75.068 54.8972 75.1801 55.4815 75.1801 56.1144C75.1801 56.7399 75.068 57.3205 74.8402 57.8486C74.6123 58.3804 74.2985 58.8374 73.8951 59.2232C73.4917 59.6089 73.0099 59.9086 72.4458 60.1258C71.8818 60.3431 71.258 60.4479 70.5819 60.4479C69.7265 60.4479 68.9496 60.2681 68.2436 59.9123C67.5489 59.5528 66.9998 59.0471 66.6038 58.3917C66.2079 57.7287 66.0137 56.9684 66.0137 56.1107C66.0137 55.2605 66.2079 54.5076 66.5889 53.8409C66.9774 53.178 67.519 52.6611 68.21 52.2978C68.9085 51.9345 69.7004 51.751 70.5894 51.751ZM70.5894 56.9834C70.8807 56.9834 71.1161 56.8972 71.2879 56.7249C71.4597 56.5527 71.5456 56.3204 71.5456 56.0283C71.5456 55.7361 71.456 55.5002 71.2842 55.3279C71.1123 55.1556 70.8808 55.0657 70.5857 55.0657C70.4437 55.0657 70.3205 55.0882 70.2047 55.1369C70.0926 55.1818 69.9918 55.2492 69.9133 55.3354C69.8311 55.4215 69.7676 55.5264 69.7228 55.6425C69.6743 55.7586 69.6556 55.8897 69.6556 56.0283C69.6556 56.3129 69.7415 56.5414 69.917 56.7174C70.0851 56.8935 70.313 56.9834 70.5894 56.9834Z" fill="white"/>
<path d="M42.6495 47.2603C42.4851 47.4401 42.3507 47.5787 42.2535 47.6798C42.149 47.7809 42.0593 47.8746 41.9771 47.9645C41.895 48.0544 41.809 48.1368 41.7231 48.2192C41.6335 48.3016 41.5214 48.4102 41.3832 48.5488C41.2562 48.6873 41.0695 48.8784 40.8267 49.1181C40.5801 49.3578 40.3187 49.5937 40.0423 49.8297C39.7658 50.0657 39.4932 50.2679 39.2205 50.4477C38.9516 50.6237 38.7237 50.7136 38.5519 50.7136C38.2605 50.7136 38.0252 50.5563 37.8422 50.2492C37.6591 49.9383 37.5658 49.5638 37.5658 49.1218C37.5658 48.6162 37.6405 48.1031 37.7861 47.5862C37.9318 47.0693 38.1074 46.5487 38.3128 46.0318C38.522 45.5149 38.7499 44.9981 38.9926 44.4962C39.2392 43.9905 39.4633 43.5111 39.6613 43.0542C39.7771 42.7883 39.8704 42.5598 39.9377 42.3725C40.0049 42.1815 40.0423 42.0242 40.0423 41.8968C40.0423 41.6084 40.0161 41.4212 39.9563 41.3463C39.9003 41.2713 39.8107 41.2339 39.6799 41.2339C39.4297 41.2339 39.1383 41.3425 38.8134 41.5635C38.4846 41.7845 38.1298 42.0841 37.7413 42.4624C37.3566 42.8407 36.9606 43.2789 36.561 43.7733C36.1576 44.2677 35.7542 44.7771 35.3619 45.3089C34.966 45.8408 34.5775 46.3764 34.2003 46.9195C33.823 47.4663 33.4831 47.972 33.1768 48.4364C33.0797 48.59 32.949 48.6649 32.7995 48.6649C32.6987 48.6649 32.6053 48.6237 32.5157 48.5413C32.426 48.4589 32.3812 48.354 32.3812 48.2304C32.3812 48.1555 32.3999 48.0806 32.4335 48.0057C32.5605 47.7772 32.7323 47.4701 32.9452 47.0843C33.1581 46.6985 33.386 46.2753 33.625 45.8146C33.8641 45.3539 34.1069 44.8745 34.3534 44.3838C34.5999 43.8932 34.8203 43.4175 35.0146 42.9643C35.2125 42.5073 35.3694 42.0879 35.4964 41.7021C35.6234 41.3163 35.6869 41.0129 35.6869 40.7844C35.6869 40.5185 35.6458 40.3312 35.5711 40.2226C35.4964 40.114 35.4142 40.0616 35.3246 40.0616C35.037 40.0616 34.6933 40.2226 34.3049 40.5372C33.9164 40.8519 33.5018 41.2414 33.076 41.7021C32.6464 42.1628 32.2318 42.6534 31.8246 43.174C31.4212 43.6947 31.0664 44.1553 30.7675 44.5599C30.3641 45.0917 30.0018 45.6048 29.6806 46.0992C29.3593 46.5936 29.0904 47.0019 28.8775 47.3315C28.5488 47.7997 28.2126 48.2604 27.8652 48.7136C27.5178 49.1668 27.1443 49.5788 26.7409 49.9458C26.6662 50.0207 26.5691 50.0582 26.457 50.0582C26.3188 50.0582 26.203 49.9908 26.1096 49.8597C26.0125 49.7248 25.964 49.5975 25.964 49.4701C25.964 49.354 26.0088 49.178 26.0872 48.9383C26.1694 48.6986 26.2703 48.4289 26.3973 48.133C26.5243 47.8334 26.6625 47.53 26.8119 47.2116C26.965 46.897 27.1144 46.5936 27.2564 46.3127C27.4021 46.0281 27.5253 45.7771 27.6336 45.5636C27.742 45.3464 27.8204 45.1966 27.869 45.1067C28.2724 44.3501 28.6646 43.616 29.0418 42.9081C29.4191 42.2002 29.7291 41.556 29.9719 40.9717C30.084 40.6945 30.14 40.4024 30.14 40.1028C30.14 40.0765 30.1213 40.0391 30.0915 39.9867C30.0616 39.938 29.9533 39.9117 29.7628 39.9117C29.3706 39.9117 28.9858 39.9754 28.5973 40.1028C28.2126 40.2264 27.8466 40.4024 27.4992 40.6234C27.1518 40.8444 26.8306 41.0953 26.5355 41.3837C26.2366 41.6684 25.9826 41.968 25.766 42.2864C25.6651 42.4249 25.5494 42.4961 25.4074 42.4961C25.3066 42.4961 25.2094 42.4549 25.1161 42.3725C25.0189 42.2901 24.9741 42.1852 24.9741 42.0616C24.9741 42.0092 24.9965 41.9343 25.0488 41.8332C25.2879 41.4661 25.5792 41.114 25.9191 40.7807C26.2591 40.4436 26.6326 40.1514 27.0323 39.8968C27.4357 39.6458 27.869 39.4398 28.3284 39.29C28.7916 39.1402 29.266 39.0615 29.759 39.0615C29.901 39.0615 30.0392 39.0765 30.1848 39.1102C30.3305 39.1439 30.465 39.2001 30.592 39.2788C30.7153 39.3612 30.8161 39.4698 30.8945 39.6009C30.9693 39.732 31.0066 39.9005 31.0066 40.1028C31.0066 40.3163 30.9879 40.511 30.9506 40.6908C30.9132 40.8668 30.8609 41.0391 30.79 41.2002C30.7227 41.365 30.648 41.5298 30.5658 41.6946C30.4837 41.8594 30.4052 42.0354 30.3305 42.2264C30.14 42.6684 29.8972 43.1703 29.5947 43.7321C29.2921 44.2939 28.9746 44.8782 28.6459 45.485C28.433 45.9007 28.2201 46.3165 28.0034 46.7247C27.7868 47.1367 27.6 47.5263 27.4357 47.8933C27.9026 47.2865 28.3359 46.6573 28.7393 46.0056C29.1427 45.3539 29.5723 44.7172 30.028 44.0992C30.1774 43.8969 30.3753 43.6347 30.6144 43.3126C30.8535 42.9905 31.1261 42.6459 31.425 42.2864C31.7313 41.9268 32.0525 41.5635 32.3924 41.1964C32.7323 40.8294 33.0722 40.4998 33.4121 40.2001C33.752 39.9005 34.0882 39.6645 34.4169 39.4773C34.7419 39.2937 35.0444 39.2001 35.3209 39.2001C35.5749 39.2001 35.7766 39.2563 35.9372 39.3724C36.0941 39.4885 36.2173 39.6271 36.307 39.7881C36.3929 39.9529 36.4564 40.1252 36.4863 40.3088C36.5199 40.4923 36.5348 40.6459 36.5348 40.7732C36.5348 41.114 36.4414 41.556 36.2509 42.0991C36.0604 42.6422 35.8326 43.2003 35.5674 43.7696C35.784 43.5036 36.053 43.1778 36.3742 42.792C36.6954 42.4062 37.0428 42.0317 37.4164 41.6721C37.7861 41.3125 38.1671 41.0054 38.5594 40.7507C38.9516 40.4998 39.3213 40.3724 39.6725 40.3724C39.9526 40.3724 40.173 40.4249 40.3373 40.5335C40.498 40.6421 40.6212 40.7732 40.7071 40.9305C40.7893 41.0878 40.8379 41.2564 40.8566 41.4324C40.8752 41.6084 40.8864 41.7583 40.8864 41.8856C40.8864 42.0392 40.8453 42.2227 40.7706 42.4437C40.6959 42.6684 40.6026 42.9156 40.4868 43.1965C40.3112 43.6123 40.102 44.0729 39.8592 44.5786C39.6202 45.0842 39.3961 45.6048 39.1794 46.1329C38.9665 46.6648 38.7835 47.1854 38.6303 47.6985C38.4772 48.2117 38.4062 48.6799 38.4062 49.1106C38.4062 49.414 38.4361 49.6012 38.4996 49.6687C38.5631 49.7398 38.6116 49.7735 38.6527 49.7735C38.7424 49.7735 38.8843 49.6949 39.086 49.5376C39.2877 49.3803 39.5006 49.2042 39.721 49.0057C39.9414 48.8072 40.1506 48.6124 40.3448 48.4177C40.5428 48.2192 40.6773 48.0843 40.7482 48.0094C40.9275 47.8334 41.1292 47.6199 41.3533 47.3727C41.5775 47.1255 41.7941 46.8895 41.9958 46.6611C42.0556 46.5974 42.1153 46.5674 42.1639 46.5674C42.2162 46.5674 42.2722 46.5674 42.3357 46.5674C42.4366 46.5674 42.515 46.6049 42.5785 46.6798C42.642 46.7584 42.6756 46.8446 42.6756 46.9457L42.6943 46.9644C42.7354 47.0918 42.713 47.1892 42.6495 47.2603Z" fill="white"/>
<path d="M47.9348 47.2902C47.9049 47.3352 47.8713 47.3839 47.8302 47.4326C47.6024 47.6835 47.3372 47.9794 47.0271 48.3127C46.7171 48.6461 46.3847 48.9607 46.0261 49.2528C45.6638 49.545 45.2902 49.7885 44.8906 49.9907C44.4909 50.1967 44.0987 50.2941 43.7065 50.2941C43.4301 50.2941 43.1985 50.2004 43.0155 50.0169C42.8324 49.8334 42.739 49.545 42.739 49.1555C42.739 48.9532 42.7876 48.7135 42.881 48.4363C42.9781 48.1592 43.0864 47.8745 43.2134 47.5936C43.3404 47.309 43.4712 47.0318 43.6131 46.7584C43.7513 46.4887 43.8671 46.2565 43.953 46.0655C43.9792 46.0168 44.0053 45.9681 44.0277 45.9231C44.0539 45.8782 44.0763 45.8332 44.1024 45.7808C44.0389 45.8332 43.9754 45.8894 43.9119 45.9531C43.8522 46.0168 43.7774 46.0842 43.6878 46.1628C43.4114 46.44 43.1387 46.7209 42.8735 47.0056C42.612 47.2902 42.3767 47.5337 42.175 47.7359C42.0891 47.852 41.9733 47.9082 41.8351 47.9082C41.7193 47.9082 41.6185 47.867 41.5213 47.7846C41.428 47.7022 41.3794 47.6011 41.3794 47.4887C41.3794 47.4288 41.3906 47.3801 41.4167 47.3464C41.4429 47.3165 41.4728 47.279 41.5101 47.2415C41.6782 47.0655 41.8949 46.8295 42.1638 46.5299C42.4365 46.234 42.7241 45.9419 43.0267 45.661C43.3292 45.3763 43.6355 45.1291 43.9455 44.9194C44.2518 44.7096 44.5357 44.6085 44.786 44.6085C44.898 44.6085 44.9952 44.6459 45.0699 44.7208C45.1446 44.7995 45.1819 44.9119 45.1819 45.0617C45.1819 45.1666 45.1296 45.3576 45.0213 45.6422C44.9167 45.9269 44.7897 46.2265 44.644 46.5411C44.4984 46.8558 44.3564 47.1516 44.2257 47.4251C44.0949 47.6947 44.009 47.867 43.9717 47.9457C43.8596 48.2004 43.7662 48.4214 43.6953 48.6199C43.628 48.8146 43.5907 48.9832 43.5907 49.1218C43.5907 49.2866 43.6168 49.3914 43.6654 49.4326C43.7139 49.4776 43.7774 49.5001 43.8559 49.5001C44.0837 49.5001 44.3527 49.3989 44.6777 49.1967C44.9989 48.9944 45.3239 48.7547 45.6526 48.4775C45.9775 48.2004 46.2876 47.912 46.5677 47.6161C46.8516 47.3202 47.0682 47.073 47.2176 46.8857C47.3334 46.7734 47.4418 46.7172 47.5426 46.7172C47.6547 46.7172 47.7555 46.7584 47.8414 46.8483C47.9311 46.9344 47.9759 47.0393 47.9759 47.1516C47.9834 47.2003 47.9684 47.249 47.9348 47.2902ZM46.2539 42.2826C46.0859 42.4399 45.8991 42.5185 45.6936 42.5185C45.5816 42.5185 45.4807 42.4773 45.3911 42.3874C45.3014 42.3013 45.2604 42.1964 45.2604 42.084C45.2604 41.9043 45.35 41.7395 45.533 41.5822C45.7161 41.4248 45.8954 41.3462 46.0709 41.3462C46.1867 41.3462 46.2876 41.3911 46.3772 41.481C46.4631 41.5709 46.5079 41.672 46.5079 41.7844C46.5079 41.9604 46.4258 42.1252 46.2539 42.2826Z" fill="white"/>
</svg>
